<svg xmlns="http://www.w3.org/2000/svg" viewBox="0 0 500 500"><g id="freepik--Bigfoot--inject-64"><path d="M168.83,311.7s-4.1,10.25-4.1,13.94-6.11,13.59-5.12,15.42c2,3.73,5.93,2,5.93,2s-.54,3.71,2.37,4.87a4.3,4.3,0,0,0,3.79-.57,3.7,3.7,0,0,0,2.11,4c2.62,1.11,3.83-.71,3.83-.71s-.8,6,3.91,4.72,7.57-8.37,7.57-8.37,4.5,4.45,5.32,2-1.64-5.12-1.23-10.45,1.78-13.52,1.4-14.75-5.08-12.09-5.08-12.09Z" style="fill:#ffbf9d"></path><path d="M180.37,355.56a2.46,2.46,0,0,1-1.69-.58c-1.31-1.17-1.12-3.73-1.07-4.25a3.05,3.05,0,0,1-3.8.65,3.69,3.69,0,0,1-2.14-4,4.33,4.33,0,0,1-3.76.54,3.82,3.82,0,0,1-2.3-2.9,6.51,6.51,0,0,1-.1-2,6,6,0,0,1-2.06.39h-.12a4.22,4.22,0,0,1-3.74-2.41c-.51-.95.85-4,2.29-7.27s2.83-6.37,2.83-8.16c0-3.66,4.06-13.84,4.1-13.95h20.74c0,.11,4.72,10.88,5.09,12.09.22.74-.17,3.89-.61,7.53-.31,2.5-.63,5.08-.79,7.24a17.33,17.33,0,0,0,.85,6.57c.43,1.52.77,2.72.38,3.88a1,1,0,0,1-.72.73,1.27,1.27,0,0,1-.28,0c-1.51,0-4-2.42-4.34-2.72a23.63,23.63,0,0,1-2,3.7c-1.19,1.77-3.12,4-5.56,4.65A4.43,4.43,0,0,1,180.37,355.56Zm-2.69-5v.11s-.39,3,1.05,4.29a3,3,0,0,0,2.83.41c2.42-.64,4.35-2.88,5.53-4.64a21.55,21.55,0,0,0,2-3.72l0,0,0,0s2.78,2.73,4.35,2.73a1.09,1.09,0,0,0,.26,0,1,1,0,0,0,.68-.7c.38-1.15.05-2.34-.38-3.84a17.46,17.46,0,0,1-.85-6.6c.17-2.16.48-4.74.79-7.23.44-3.64.83-6.79.61-7.51-.36-1.19-4.88-11.61-5.08-12.07H168.85c-.18.46-4.09,10.33-4.09,13.91,0,1.8-1.44,5-2.83,8.18s-2.8,6.3-2.3,7.23a4.23,4.23,0,0,0,3.71,2.38h.11a5.43,5.43,0,0,0,2.08-.41h.05v0a6.51,6.51,0,0,0,.09,2,3.79,3.79,0,0,0,2.26,2.86,4.31,4.31,0,0,0,3.77-.57l.05,0,0,.06a3.7,3.7,0,0,0,2.1,4c2.57,1.1,3.79-.68,3.8-.7Z" style="fill:#263238"></path><path d="M167,341.88a24.32,24.32,0,0,1,2.9-2.09l1.49-1A15.75,15.75,0,0,0,173,337.6a2.5,2.5,0,0,0,1-1.77,2.79,2.79,0,0,0-.85-2,4.31,4.31,0,0,0-4.2-.69,15.93,15.93,0,0,0-3.41,1.66,8.88,8.88,0,0,1-3.27,1.46,6,6,0,0,1,.85-.44,23.56,23.56,0,0,0,2.22-1.33,14.9,14.9,0,0,1,3.47-1.81,5.7,5.7,0,0,1,2.35-.26,3.92,3.92,0,0,1,2.36,1,3.29,3.29,0,0,1,1,2.4,3,3,0,0,1-1.15,2.12,15.76,15.76,0,0,1-1.74,1.18l-1.52,1A25.23,25.23,0,0,1,167,341.88Z" style="fill:#ff9a6c"></path><path d="M173.75,337.2s.13-.28.59-.58a3.32,3.32,0,0,1,2.23-.43,4.6,4.6,0,0,1,2.85,1.79,5.15,5.15,0,0,1,1,1.78,3,3,0,0,1-.17,2.22,5,5,0,0,1-1.49,1.59c-.56.4-1.1.76-1.64,1.08a32.23,32.23,0,0,1-2.91,1.56,14.84,14.84,0,0,1-2.81,1.15,23.77,23.77,0,0,1,2.64-1.48c.82-.45,1.79-1,2.83-1.64.52-.33,1.05-.69,1.58-1.08a4.64,4.64,0,0,0,1.34-1.42,3.37,3.37,0,0,0-.7-3.47,4.36,4.36,0,0,0-2.53-1.72,3.33,3.33,0,0,0-2.07.25C174,337,173.78,337.24,173.75,337.2Z" style="fill:#ff9a6c"></path><path d="M186.25,339.45a5.11,5.11,0,0,1-.38-1.75,12.49,12.49,0,0,1,.41-4.67l.15.29a24.25,24.25,0,0,1-5-2.13,13.42,13.42,0,0,1-3.57-3,10.19,10.19,0,0,1-1.81-3.35,7.32,7.32,0,0,1-.36-2.54,2,2,0,0,1,.14-.92,11.87,11.87,0,0,0,.57,3.34,10.16,10.16,0,0,0,1.84,3.16,13.14,13.14,0,0,0,3.45,2.85,25.79,25.79,0,0,0,4.87,2.14l.21.07-.06.21a13.58,13.58,0,0,0-.59,4.52C186.18,338.8,186.31,339.44,186.25,339.45Z" style="fill:#ff9a6c"></path><path d="M183.24,317.25a1.19,1.19,0,0,1,1.07.22c1.47.84,3.51,1.59,5,2.44-1.64-4.2-2-8.69-2.65-13.16l-23.1,1.69c.91,4.65-.39,14.48-.39,14.48l2.95-5.18c.29,2.19.63,2.78,1,5.45a14.79,14.79,0,0,1,4.29-5.5,13.53,13.53,0,0,0,4.5,6.48c.27-2.1.55-4.19.82-6.28a42.58,42.58,0,0,0,8.14,8.55l-1.89-7.75C182.81,318.17,182.76,317.48,183.24,317.25Z" style="fill:#7FCD91"></path><path d="M215.69,196.38a97.13,97.13,0,0,0-46.81,43.89,16.85,16.85,0,0,1,9.77-7.65,53.4,53.4,0,0,0-14,20.71l5.22-3.8c-8.29,15.58-12.07,32-14.56,49.47,1.22-2.92,4.21-7.55,5.48-10.2a44.82,44.82,0,0,0-3.71,17,1.09,1.09,0,0,0,2.08.5l3.39-7.14a55.53,55.53,0,0,0,3.7,19l28.57-6.05C195,274.37,201.56,234,215.69,196.38Z" style="fill:#7FCD91"></path><g style="opacity:0.30000000000000004"><path d="M194.24,329.33c-5.75-6.89-7.71-16.63-8.15-34.38l-4.62,8.56c-4.42-10.82,2.89-36.36,2.89-36.36l-4.44,6.66h0c.14-14,12.14-35.58,12.14-35.58l-5.6,5.09c-.59-6.31,7.5-16.85,7.5-16.85l-6.16,4.7c3.12-11.65,20-34,20-34s-24.27,26.54-25.44,40l4.68-3.13-4.91,14.51,3-2.11s-8.94,18.26-7,30.67l1.63-.47s-6.08,19.9.24,30.55l4.45-5S183.27,317.78,194.24,329.33Z"></path></g><path d="M180,340.2s.2-.25.7-.56a6.15,6.15,0,0,1,2.3-.86,6.43,6.43,0,0,1,1.72-.07,3.83,3.83,0,0,1,1.92.65,2.1,2.1,0,0,1,.7.92,2.17,2.17,0,0,1,.08,1.21,3.93,3.93,0,0,1-1.29,2c-2.37,2.06-4.53,3.86-6.11,5.17a20.52,20.52,0,0,1-2.63,2,21,21,0,0,1,2.39-2.3c1.51-1.37,3.65-3.24,6-5.28a3.42,3.42,0,0,0,1.15-1.74,1.55,1.55,0,0,0-.58-1.64,3.28,3.28,0,0,0-1.66-.6,6.26,6.26,0,0,0-1.62,0A9.69,9.69,0,0,0,180,340.2Z" style="fill:#ff9a6c"></path><path d="M189.06,346.86c-.07,0-.14-.37-.14-.94a3.05,3.05,0,0,0-.45-2,2,2,0,0,0-1.83-.51c-.53.08-.81.3-.86.24s.17-.39.77-.6a2.19,2.19,0,0,1,2.31.53,2.25,2.25,0,0,1,.49,1.28,4.65,4.65,0,0,1-.06,1C189.19,346.51,189.13,346.85,189.06,346.86Z" style="fill:#ff9a6c"></path><path d="M331.09,167.27v-5.7s-6-15.34-13.67-21.63-14.16-8.06-20.06-7.28L294.61,134l2.55.39s-11.4,4.52-16.91,8.46-6.29,5.9-6.29,5.9l3.93-1.18a33.15,33.15,0,0,1-11.6,11.2c-7.86,4.53-19.27,4.92-19.27,4.92l3.94,3.34-8.46,1.77,5.5,4.92s-17.07.51-35,18a101,101,0,0,0-24.92,39l6.17-4.7L186.74,243l5.59-5.09s-7.55,22.18-8,41.13,15.33,65.5,15.33,65.5l71.56-40.43,18.09-22.86-5.46-14.56,3.63-14.59a49.18,49.18,0,0,0,4.71-13.9c-.05,2.58.3,3.21.25,5.79,2.88-5.79,3-11.7,3.13-17.61.58,3.54,1.67,5.52,2.17,8.21,1.05-7.36.73-14.65.38-21.82q1.36,3.27,2.72,6.54a33.08,33.08,0,0,0-1.83-11l9.42-4.33-4-4L328,176.12s6.49-3,6.1-8.26l0-2.75Z" style="fill:#7FCD91"></path><path d="M295.84,138.68a2.28,2.28,0,0,1,.7-.23,13.84,13.84,0,0,1,2-.35,19.9,19.9,0,0,1,12.72,3,12.94,12.94,0,0,1,1.61,1.19c.36.31.54.5.52.53s-.88-.58-2.33-1.41a22.37,22.37,0,0,0-12.49-2.95C296.88,138.56,295.86,138.77,295.84,138.68Z" style="fill:#263238"></path><path d="M281,430.19s0,13.31-2,19-5.24,11.79-4.58,16.37,1.08,7.51,6.73,7.73,13,0,15.67,0c3.28,0,18.76,0,27.05,0s17.68.87,21.13-2.18c3.82-3.38,3.28-10.3.66-11.61-1.31-.66-3.81,2.71-6.51,2.65s-6.14-2.22-9.31-3.09c-6.33-1.74-23.67-4.48-24.08-15.42s-10.61-11.86-10.61-11.86Z" style="fill:#ffbf9d"></path><path d="M323.7,385.64a32,32,0,0,0-3-30.37c-2.84-4.28-5.79-8.63-8.22-12-7.2-10.11-33.61-42.69-35.41-45.6H238.7v44.62L253.33,354l-.46.16a54,54,0,0,1,14,17.08,7.1,7.1,0,0,0,.21-4.87,61.89,61.89,0,0,1,9.2,9.25,9.8,9.8,0,0,0-1.24-7.32,26.49,26.49,0,0,1,8.21,5.77c1.41,2.93.54,8.95-6.42,12,.27-.25,3.53.29,3.8,0l-7.86,12.48a6.21,6.21,0,0,0,3.06-2.55,18.34,18.34,0,0,0-.67,13.84l1.56-4.67c0,1.28,0,3-.06,5h0c-2.93,12.48,1,21.71-2.33,29.29a11.12,11.12,0,0,0,3-4A28.82,28.82,0,0,1,276.18,446l3.06-3.73a13.94,13.94,0,0,0-.08,5.07c-.07,1.16-.11,1.85-.11,1.85l.54,0a14,14,0,0,0,2.4,4.61,18.92,18.92,0,0,1,1.3-4.78l7.38-.36,2.82,2.59a14.57,14.57,0,0,1,.65-2.76l7.88-.38.19.2a1.47,1.47,0,0,1,0-.21l4.76-.23h0c0-.29.09-.59.14-.88a15.35,15.35,0,0,0,4.36,1.83,34.71,34.71,0,0,1-3.14-8.7c0-.2.07-.4.11-.6a9.52,9.52,0,0,0,4.4,3.68c-2.54-9.86.25-20.26,2.73-30.3l2.82,6.82.3-16.54a22.83,22.83,0,0,0,4,7A60.77,60.77,0,0,1,323.7,385.64Z" style="fill:#7FCD91"></path><path d="M328.86,187.44s2.93,4.29,3.12,8-1.57,11.2-1.57,11.2l-1.57,6.49L326.09,208v3.73l-3.94-6.49-1-.05-1.63,6.72-7.79-6.39-10.83-1.85s-7.67-12.58-7.08-12.58S319,172.24,319,172.24h9a3.05,3.05,0,0,0-.78,4.33c1.77,2.55,5.39,2.1,5,6C332,185.29,328.86,187.44,328.86,187.44Z" style="fill:#7FCD91"></path><path d="M305.9,176.54l.05-.08c0-.08.07-.15.11-.22Z" style="fill:#ffbf9d"></path><path d="M334.15,182.1c-.58-1.79-6.21-5.15-6.21-5.15s4-2.58,4.35-4.71a9.78,9.78,0,0,0-.46-4.25l-19.29,3.21a11.29,11.29,0,0,0-6.59,5.26,10.21,10.21,0,0,0-1.23,4.65,5.13,5.13,0,0,0,3.21,4.86c1.49.47,3.29.06,4.5,1.05.91.75,1.13,2,1.52,3.16,1.19,3.38,4.38,5.75,7.8,6.83a30.54,30.54,0,0,0,10.16,1.27l1.07-4.54-1-2.46s1.53.25,1.71-.95S334.73,183.89,334.15,182.1Z" style="fill:#ffbf9d"></path><path d="M306.06,176.24c.18-.33.36-.66.53-1C306.41,175.58,306.23,175.91,306.06,176.24Z" style="fill:#ffbf9d"></path><path d="M146.88,416.57s-11,3.42-7.09,14.67S151,449.57,152.5,456.42s1.6,18.41,25.22,16.8h12.16s5.52.38,3.14-4.65c-5.88-12.45-11-1.12-14.11-7.5-2.62-5.35-7.88-22.53-4.93-27.89,3.11-5.65,16-10.7,16-10.7l-23.55-18.63S154,416.32,146.88,416.57Z" style="fill:#ffbf9d"></path><g style="opacity:0.30000000000000004"><path d="M316,171.59l-1.56-.17a12.49,12.49,0,0,0,15.43,2.72Z"></path></g><path d="M322.43,176.26a2.07,2.07,0,0,1-2.11,2,2,2,0,0,1-2-2,2.06,2.06,0,0,1,2.11-2A2,2,0,0,1,322.43,176.26Z" style="fill:#263238"></path><path d="M333,184.08c0,.07-.4.09-1,.15a8.48,8.48,0,0,1-2.57-.08,2.79,2.79,0,0,1-2.06-1.62c-.26-.68-.05-1.12,0-1.09s0,.41.33.93a2.73,2.73,0,0,0,1.85,1.27,14.74,14.74,0,0,0,2.45.22C332.59,183.9,333,184,333,184.08Z" style="fill:#ff9a6c"></path><path d="M316.67,187.3a28.86,28.86,0,0,0-.09,4.36c0,.39.12.86.48,1s.84-.27,1.1-.65c.8-1.17,2-2.78,2.8-3.95Z" style="fill:#fff"></path><path d="M313.71,171.29s-.2-4.27.51-5a3.56,3.56,0,0,1,2.76-.66l5.09.25a3.44,3.44,0,0,0,2.39-.47c1-.78.81-2.26.56-3.48l3.81,4.29q1.26-3,2.51-5.94c.21,2,.74,4.42,1,6.45l3.06-2.16s.52,7.08-3.75,9.55c-2.66,1.55-12.3-.41-17.89-2.83" style="fill:#7FCD91"></path><path d="M313.71,171.29s.74.27,2.1.72a52.73,52.73,0,0,0,5.9,1.6,37.77,37.77,0,0,0,4.21.69,14.43,14.43,0,0,0,4.85-.1,4.6,4.6,0,0,0,2.1-1.43,7.82,7.82,0,0,0,1.39-2.36,14.72,14.72,0,0,0,.83-5.82l.41.19L332.44,167l-.36.25,0-.44c-.09-.79-.22-1.64-.36-2.5-.22-1.32-.46-2.63-.59-3.95l.49.08-2.52,5.92-.15.37-.26-.3-3.8-4.29.4-.2a6.87,6.87,0,0,1,.14,2.17,2.18,2.18,0,0,1-1.2,1.77,4.19,4.19,0,0,1-2,.26l-1.82-.1-3.29-.19a3.94,3.94,0,0,0-2.6.43,1.46,1.46,0,0,0-.5,1,10.42,10.42,0,0,0-.15,1c-.06.65-.08,1.21-.09,1.66s0,.77,0,1a1.65,1.65,0,0,1,0,.36,1.41,1.41,0,0,1,0-.35c0-.24,0-.59-.05-1.05s0-1,0-1.68c0-.33.05-.69.12-1.07a3.37,3.37,0,0,1,.16-.58,1.18,1.18,0,0,1,.41-.55,4.15,4.15,0,0,1,2.79-.54l3.29.14,1.82.08a3.8,3.8,0,0,0,1.78-.24A1.79,1.79,0,0,0,325,164a6.39,6.39,0,0,0-.16-2l-.17-.84.57.64,3.83,4.27-.41.07,2.49-5.94.39-.92.11,1c.14,1.28.38,2.59.59,3.92.15.86.28,1.72.36,2.53l-.41-.19,3.06-2.16.39-.27,0,.46a15.14,15.14,0,0,1-.9,6,6.43,6.43,0,0,1-3.81,4,14.72,14.72,0,0,1-5,.07,39.42,39.42,0,0,1-4.23-.76,46.55,46.55,0,0,1-5.89-1.75c-.67-.26-1.19-.47-1.53-.64A2.2,2.2,0,0,1,313.71,171.29Z" style="fill:#263238"></path><path d="M310.89,166.36A8.13,8.13,0,0,1,312,169a8.22,8.22,0,0,1,.61,2.83,8.5,8.5,0,0,1-1.11-2.67A8.35,8.35,0,0,1,310.89,166.36Z" style="fill:#263238"></path><path d="M331.83,191.08a14.64,14.64,0,0,1-2.54-.62c-1.55-.43-3.7-1-6.08-1.58s-4.57-1-6.15-1.34a12.94,12.94,0,0,1-2.54-.59,12.91,12.91,0,0,1,2.6.23c1.61.23,3.81.62,6.21,1.19s4.54,1.22,6.07,1.74A11.52,11.52,0,0,1,331.83,191.08Z" style="fill:#263238"></path><path d="M242.65,188.16s.07-.11.25-.29.43-.46.79-.78a20.46,20.46,0,0,1,3.33-2.46,23.35,23.35,0,0,1,13.43-3.33l-.1.5c-1.1-.4-2.26-.77-3.46-1.09a45.67,45.67,0,0,0-6.48-1.24l-.88-.1.8-.37a19.94,19.94,0,0,1,11.7-1.57,18.44,18.44,0,0,1,3.34.89c.38.14.66.28.85.36s.28.14.28.16a31.24,31.24,0,0,0-4.52-1.1,20.27,20.27,0,0,0-11.44,1.71l-.08-.47a42.56,42.56,0,0,1,6.57,1.23c1.21.32,2.39.7,3.49,1.1l1.7.62-1.8-.12a23.84,23.84,0,0,0-13.23,3.11A36.3,36.3,0,0,0,242.65,188.16Z" style="fill:#263238"></path><path d="M192.11,240a90.93,90.93,0,0,0-11.92,34.91l4.45-8.11a63.84,63.84,0,0,0-3.17,36.73c1.57-3.35,3.4-5.85,5-9.2a35.13,35.13,0,0,0,7.68,28.13" style="fill:#7FCD91"></path><path d="M251.51,290.88c-6.18-12.92-20.78-20.79-20.78-20.79L186,275.27A152.78,152.78,0,0,0,193.65,328c5,15.3,5.06,35.39,5.06,35.39l3.93-9.55v18.54l.12,6.52a35,35,0,0,0-21.66,1.79l8.88,1.17a33.7,33.7,0,0,0-17,7.53l8.79-.07-.49.43a19.2,19.2,0,0,0-9.16,8.57l-3.67,3.45a71.59,71.59,0,0,1-14.67,3.22,13.11,13.11,0,0,0,7.68,3.34l-.27.26a35.91,35.91,0,0,0-7.84,2.46,4.11,4.11,0,0,0-1.57,1.12,1.67,1.67,0,0,0-.22,1.81,2.5,2.5,0,0,0,2.24.81l1.37-.05L174,430.19l1.6-.64a7,7,0,0,0-.15,4.64,38.79,38.79,0,0,0,5.59-4.64,10,10,0,0,0-.45,3.16,1.22,1.22,0,0,0,.31.93.9.9,0,0,0,1.17-.14,3.18,3.18,0,0,0,.59-1.14,18,18,0,0,1,5.61-7.88l4.36-1.74a124.78,124.78,0,0,0,16.52-6.61l12.6-5h.09l-4.53,5.68A33.17,33.17,0,0,0,231.66,409l-3.24,7a38.87,38.87,0,0,0,11.84-18.54c.31-.74.61-1.61,1-2.74,1.58-4.79,3.64-10.4,3.64-10.4s5.4-11.71,8.8-32.89C256.73,332.56,257.69,303.8,251.51,290.88Z" style="fill:#7FCD91"></path><path d="M318.07,384.84a7.15,7.15,0,0,1-.06,1.41c-.07.9-.23,2.2-.52,3.81a49.26,49.26,0,0,1-4,12.28l-.31.65-.17-.69c-.16-.62-.31-1.28-.44-1.95a36.89,36.89,0,0,1-.7-6.71l.49,0a55.1,55.1,0,0,1-1.91,9.47c-.34,1.14-.65,2-.88,2.64a4.07,4.07,0,0,1-.4.91,5,5,0,0,1,.25-1c.17-.62.44-1.52.74-2.66a64.36,64.36,0,0,0,1.72-9.45l.48,0a37.88,37.88,0,0,0,.72,6.61c.13.66.28,1.31.43,1.92l-.49-.05A53.56,53.56,0,0,0,317.14,390c.34-1.59.55-2.88.68-3.78A7.25,7.25,0,0,1,318.07,384.84Z" style="fill:#263238"></path><path d="M275.23,364.64a6,6,0,0,1-1.13-.72c-.71-.49-1.72-1.25-2.94-2.25a58.85,58.85,0,0,1-8.81-9.08l.44-.23c.46,1.6.94,3.3,1.44,5,.54,1.93,1.07,3.81,1.57,5.57l.31,1.09-.74-.86a67.3,67.3,0,0,1-7.18-9.95c-.78-1.32-1.35-2.39-1.72-3.14a5.83,5.83,0,0,1-.53-1.17,8,8,0,0,1,.68,1.09c.42.72,1,1.77,1.84,3.05a75.92,75.92,0,0,0,7.29,9.79l-.44.24-1.58-5.57c-.49-1.74-1-3.44-1.43-5l-.35-1.26.8,1a64.08,64.08,0,0,0,8.62,9.15c1.18,1,2.16,1.82,2.83,2.36A9.27,9.27,0,0,1,275.23,364.64Z" style="fill:#263238"></path><path d="M282,444.06a41.46,41.46,0,0,1-2.64,14.79,34.14,34.14,0,0,0,6.07-8.93q1.95,5.7,3.89,11.41l3.77-9.42a15.17,15.17,0,0,0,8.75,8q-1.12-5.7-2.24-11.41a31.62,31.62,0,0,0,8.39,8.36,30.9,30.9,0,0,1-2.67-12.56" style="fill:#7FCD91"></path><path d="M305.32,444.31s0,.3.06.88.09,1.44.23,2.54a31.53,31.53,0,0,0,2.54,9.06l.25.56-.51-.34a31.55,31.55,0,0,1-8.48-8.37l.41-.18c.69,3.49,1.46,7.35,2.27,11.42l.08.43-.42-.15a15.52,15.52,0,0,1-8.79-7.9l-.11-.24h.48c-1.3,3.23-2.56,6.39-3.77,9.42l-.26.64-.22-.66c-1.37-4-2.66-7.87-3.87-11.42l.43,0a34.46,34.46,0,0,1-6.14,9l-.65.68.33-.87a42.9,42.9,0,0,0,2.54-10.69c.13-1.29.18-2.3.22-3,0-.32,0-.57,0-.78a.14.14,0,1,1,.06,0l0,.78c0,.69,0,1.71-.12,3a41.57,41.57,0,0,1-2.39,10.8l-.32-.2a34.19,34.19,0,0,0,6-8.9l.24-.52.19.54c1.22,3.55,2.53,7.38,3.91,11.41h-.47c1.21-3,2.46-6.19,3.75-9.42l.22-.55.26.54.11.22a15.05,15.05,0,0,0,8.49,7.66l-.33.28c-.79-4.07-1.54-7.93-2.21-11.42l-.22-1.09.63.92a31.84,31.84,0,0,0,8.29,8.34l-.26.22a30.91,30.91,0,0,1-2.41-9.19c-.1-1.11-.13-2-.13-2.56,0-.26,0-.48,0-.66S305.31,444.31,305.32,444.31Z" style="fill:#263238"></path><path d="M286.74,406.9a9.72,9.72,0,0,1-.58,1.4l-.14.32,0-.36a36.13,36.13,0,0,1-.23-6.87A39.35,39.35,0,0,1,287.8,391l.19-.54.4.3a27.6,27.6,0,0,0-5.49,5.15l-.95,1.17.54-1.4a53.78,53.78,0,0,1,3.35-7c.48-.82.87-1.45,1.16-1.88a2.83,2.83,0,0,1,.46-.62,3,3,0,0,1-.34.7l-1,1.94a63.4,63.4,0,0,0-3.16,7l-.4-.23a27.16,27.16,0,0,1,5.56-5.28l.66-.47-.27.77-.18.54a41.71,41.71,0,0,0-2.13,10.25,47.07,47.07,0,0,0,0,6.82l-.19,0A8.43,8.43,0,0,1,286.74,406.9Z" style="fill:#263238"></path><path d="M290.23,412.58a6.9,6.9,0,0,1-.67-2.07,24.23,24.23,0,0,1,0-10.45,6.57,6.57,0,0,1,.67-2.07,58.5,58.5,0,0,0-.72,7.3A60.53,60.53,0,0,0,290.23,412.58Z" style="fill:#263238"></path><path d="M301.22,352.49c-.12.11-2.43-2.28-5.6-4.86s-6-4.37-5.89-4.51a7.87,7.87,0,0,1,1.93,1,42.48,42.48,0,0,1,4.29,3.08,43,43,0,0,1,3.87,3.58A8.8,8.8,0,0,1,301.22,352.49Z" style="fill:#263238"></path><path d="M304.49,354.56a61.28,61.28,0,0,0-4.8-6.31,62,62,0,0,0-5.94-5.25,7.85,7.85,0,0,1,2,1.17,26.92,26.92,0,0,1,7.68,8.27A7.77,7.77,0,0,1,304.49,354.56Z" style="fill:#263238"></path><path d="M205.08,391.48a9.67,9.67,0,0,1,.92-1,30.22,30.22,0,0,0,2.41-2.79,26.76,26.76,0,0,0,5-11.55l.45.18a36,36,0,0,1-4.74,5.79,33.73,33.73,0,0,1-2.8,2.5l-.59.48.18-.74A79.44,79.44,0,0,0,208,369.24c.08-1.93.08-3.47.08-4.54a10,10,0,0,1,0-1.65,1.54,1.54,0,0,1,.06.42c0,.28.07.69.1,1.22.06,1.07.1,2.62.07,4.56a72.18,72.18,0,0,1-2,15.26l-.41-.26a34.61,34.61,0,0,0,2.75-2.47,35.58,35.58,0,0,0,4.69-5.7l.66-1-.2,1.16a26.08,26.08,0,0,1-5.25,11.66,24.15,24.15,0,0,1-2.54,2.72c-.32.3-.59.5-.76.64S205.09,391.49,205.08,391.48Z" style="fill:#263238"></path><path d="M224.52,392.18a21.65,21.65,0,0,0,2.09-13.39,5.63,5.63,0,0,1,.55,2,16.12,16.12,0,0,1-1.51,9.69A5.62,5.62,0,0,1,224.52,392.18Z" style="fill:#263238"></path><path d="M227.87,393.19c-.13-.08,1.17-2.49,2.38-5.62s1.91-5.78,2.06-5.75a27,27,0,0,1-4.44,11.37Z" style="fill:#263238"></path><path d="M181.47,422.29l-8.91-5.94-14.66-6.22-1.66,3.76a22.52,22.52,0,0,1-10.06,5.47,50.28,50.28,0,0,0,10.95-1.08l-7.61,8.62a34,34,0,0,0,11.72-5.49,22.73,22.73,0,0,0-2.84,10.84l5.84-2.92s2.37,16.58,2.06,15.79,2.5-7.66,2.5-7.66l6.92,10.36L175,438s2.69,3.91,2.53,3.5-.57-5.13-.08-6.84,5-7.17,5-7.17Z" style="fill:#7FCD91"></path><path d="M208.08,196.83s-16.89,22.32-20,34l6.17-4.7s-8.1,10.54-7.5,16.84l5.59-5.09s-12,21.61-12.14,35.58h0l4.45-6.66s-7.55,25.68-3.13,36.49l4.93-9s-1.3,24.88,7.8,35" style="fill:#7FCD91"></path><path d="M194.24,329.33s-.15-.16-.42-.5l-1.19-1.5c-.42-.72-1-1.6-1.55-2.69a32.32,32.32,0,0,1-1.61-3.91c-2.1-6-3.55-15.19-3.23-26.43l.37.1c-1.55,2.85-3.2,5.84-4.91,9l-.23.41-.17-.43a25.27,25.27,0,0,1-1.39-8.43,63.93,63.93,0,0,1,.54-9.07,133.13,133.13,0,0,1,3.94-19.15l.46.21-4.44,6.66,0-.14v.08h-.52v-.19l0-.3,0-.6c0-.41,0-.81.08-1.22,0-.82.2-1.63.3-2.45s.29-1.65.46-2.48.34-1.65.57-2.47a100.58,100.58,0,0,1,4.74-13.64c1.86-4.33,3.84-8.49,6-12.42l.39.3-5.6,5.09-.36.33,0-.49a12.42,12.42,0,0,1,.79-4.91,29.37,29.37,0,0,1,1.91-4.4,57.19,57.19,0,0,1,4.87-7.69l.31.31L188.19,231l-.48.37.16-.59a46.58,46.58,0,0,1,3.31-8c1.26-2.44,2.53-4.7,3.79-6.77,2.5-4.16,4.84-7.64,6.79-10.48s3.53-5,4.61-6.45l1.26-1.66c.14-.18.25-.33.32-.4a.28.28,0,0,0,.13-.15.25.25,0,0,0-.1.15l-.3.44-1.21,1.69c-1.05,1.48-2.6,3.67-4.52,6.52s-4.23,6.34-6.7,10.51c-1.24,2.07-2.5,4.33-3.73,6.76a46,46,0,0,0-3.25,8l-.33-.22,6.16-4.71,1.25-1-.94,1.26a57.33,57.33,0,0,0-4.81,7.64,30.52,30.52,0,0,0-1.87,4.34,11.83,11.83,0,0,0-.75,4.71l-.41-.16,5.59-5.1,1.09-1-.7,1.3c-2.11,3.91-4.09,8.07-5.93,12.38a99.12,99.12,0,0,0-4.71,13.57c-.23.81-.41,1.63-.57,2.45s-.36,1.63-.45,2.45-.27,1.61-.31,2.42c0,.4,0,.8-.07,1.19l0,.59,0,.3v.2h0c.46,0-.63,0-.52,0h0v-.15l0-.06,4.44-6.66.89-1.34-.43,1.55a133.84,133.84,0,0,0-3.95,19.07,63.09,63.09,0,0,0-.55,9,24.56,24.56,0,0,0,1.33,8.27l-.4,0c1.73-3.13,3.39-6.12,4.95-9l.4-.73,0,.84c-.37,11.19,1,20.36,3,26.34a33.53,33.53,0,0,0,1.55,3.91c.54,1.09,1.09,2,1.5,2.7l1.14,1.52C194.12,329.14,194.24,329.33,194.24,329.33Z" style="fill:#263238"></path><g style="opacity:0.30000000000000004"><path d="M288.56,179.75a7.21,7.21,0,0,1-3.39-3.6,13,13,0,0,1-1-4.38,8.48,8.48,0,0,0,1,6.94,8.12,8.12,0,0,0,5.79,3.67l-2.26,3a.45.45,0,0,0-.14.34.33.33,0,0,0,.36.26,1,1,0,0,0,.46-.18,12.87,12.87,0,0,0,5.09-6.12A5.79,5.79,0,0,1,288.56,179.75Z"></path></g><path d="M293.9,180.51a6.54,6.54,0,0,1-6.42-1,8.8,8.8,0,0,1-3.11-5.77,8,8,0,0,1,.61-4.62,5.27,5.27,0,0,1,3.53-2.9,5.38,5.38,0,0,1,5,2,8.6,8.6,0,0,1,1.78,5.28,10.07,10.07,0,0,1-2.11,3.78l2.11-1.12A15.16,15.16,0,0,1,293.9,180.51Z" style="fill:#ffbf9d"></path><path d="M286.93,170.56a2.7,2.7,0,0,1,2.08-.81,3.6,3.6,0,0,1,2.35.78,3.86,3.86,0,0,1,1.44,2.68l0,.4-.39-.14h0a2.24,2.24,0,0,0-2.4.61,2,2,0,0,0-.39,2,2.52,2.52,0,0,0,.86,1.22c.3.22.5.3.48.34s-.23,0-.58-.17a2.49,2.49,0,0,1-.73-3.73,2.71,2.71,0,0,1,2.95-.78h0l-.36.26a3.47,3.47,0,0,0-1.22-2.35,3.32,3.32,0,0,0-2.06-.78A5.63,5.63,0,0,0,286.93,170.56Z" style="fill:#ff9a6c"></path><path d="M286.93,146a5.74,5.74,0,0,1,.92-.71,19,19,0,0,1,2.8-1.54,20.86,20.86,0,0,1,10.61-1.68l1,.1-.93.39-2.58,1.08-4.76,2-.1-.48a38,38,0,0,1,5.14.21,14.73,14.73,0,0,1,3.94,1,9.63,9.63,0,0,1,2.29,1.39c.48.4.69.67.67.69a13.48,13.48,0,0,0-3.08-1.79,15.36,15.36,0,0,0-3.87-.89,41.25,41.25,0,0,0-5.08-.13l-1.29,0,1.19-.5,4.75-2,2.59-1.07.07.49a21.55,21.55,0,0,0-10.43,1.48C288.3,145.12,287,146.12,286.93,146Z" style="fill:#263238"></path><path d="M265.92,164.93a17.12,17.12,0,0,0,3.08.31,16.25,16.25,0,0,0,7.06-2.2c2.56-1.42,4.78-3,6.52-3.84a18.36,18.36,0,0,1,2.1-1,2.44,2.44,0,0,1,.81-.23c0,.08-1.07.53-2.73,1.51s-3.84,2.53-6.45,4a15.26,15.26,0,0,1-7.3,2.1,7.87,7.87,0,0,1-2.3-.33A2.26,2.26,0,0,1,265.92,164.93Z" style="fill:#263238"></path><path d="M265.33,168A59.65,59.65,0,0,0,272,167a54.3,54.3,0,0,0,6.37-2.25,5.78,5.78,0,0,1-1.69,1.08,21.26,21.26,0,0,1-4.56,1.67,21.71,21.71,0,0,1-4.81.62A6.41,6.41,0,0,1,265.33,168Z" style="fill:#263238"></path><path d="M291.31,184.39c-.06,0,.67-.81,1.57-2.25a16.41,16.41,0,0,0,2.28-6.29l.46.19a4.25,4.25,0,0,1-1.46,1.26,4.35,4.35,0,0,1-1.05.4l-1,.24.79-.69a6.53,6.53,0,0,0,2-6.45,10.22,10.22,0,0,0-1.22-2.67s.24.16.56.58a6.34,6.34,0,0,1,1,2,6.57,6.57,0,0,1,.1,3.36,6.82,6.82,0,0,1-2.14,3.57l-.23-.44a4.25,4.25,0,0,0,.93-.36,3.84,3.84,0,0,0,1.29-1.1l.61-.82-.15,1a15.23,15.23,0,0,1-2.51,6.41,12.37,12.37,0,0,1-1.29,1.58C291.54,184.25,291.34,184.41,291.31,184.39Z" style="fill:#263238"></path><path d="M306.87,203.17c.21,1.59,5.57,4.43,6.83,5.44s3.05,1.75,4.21,2.87a5.93,5.93,0,0,1,1.93,4.57,9.56,9.56,0,0,0,.58-3.64,3.06,3.06,0,0,1,.75,2,9,9,0,0,0,1.06-4.75,26.64,26.64,0,0,0-.72-4.86,31.82,31.82,0,0,1,4.93,9.16,9.76,9.76,0,0,0-.39-5.61,19,19,0,0,1,3.11,8,81.15,81.15,0,0,0,1.63-15.46" style="fill:#7FCD91"></path><path d="M310.76,171.19c-.12.07-.62-.56-1.1-1.4s-.78-1.59-.66-1.67.62.56,1.11,1.41S310.89,171.12,310.76,171.19Z" style="fill:#263238"></path><path d="M319.84,216.05a8.4,8.4,0,0,0-.28-1.71,7.68,7.68,0,0,0-2.9-3.71c-1.63-1.23-4-2.16-6.26-3.76a30.7,30.7,0,0,1-6.71-6.21l.44-.26a8.16,8.16,0,0,1,.57,4l0,.28-.05.42-.35-.24a12.75,12.75,0,0,1-5.42-8.84l.46.06-.67,1.63c-.1.26-.21.52-.32.78a1.75,1.75,0,0,1-.5.8.83.83,0,0,1-1-.08,2.37,2.37,0,0,1-.56-.64q-.47-.65-.84-1.29a19.14,19.14,0,0,1-2-4.75,17.54,17.54,0,0,1-.57-3.31,8.11,8.11,0,0,1,0-.89,1,1,0,0,1,0-.3,8.58,8.58,0,0,1,.17,1.18,20.36,20.36,0,0,0,.7,3.24,19.57,19.57,0,0,0,2.06,4.62q.39.63.84,1.26c.26.41.7.83,1,.6a1.39,1.39,0,0,0,.34-.6l.32-.8.64-1.63.34-.85.12.91a12.42,12.42,0,0,0,5.24,8.47l-.4.18,0-.27a7.61,7.61,0,0,0-.53-3.72l-.69-1.68,1.13,1.42a31.39,31.39,0,0,0,6.57,6.16c2.24,1.59,4.55,2.56,6.21,3.86a7.63,7.63,0,0,1,2.86,3.92,4.65,4.65,0,0,1,.17,1.32A1.65,1.65,0,0,1,319.84,216.05Z" style="fill:#263238"></path><path d="M320.37,202.56a12.94,12.94,0,0,1,1,11.67,29,29,0,0,0,.38-5.91A29.24,29.24,0,0,0,320.37,202.56Z" style="fill:#263238"></path><path d="M333.33,207a40.55,40.55,0,0,1-1.63-8.53l-.81,1.19a4.41,4.41,0,0,0-1.9,2.77,10.9,10.9,0,0,0-.2,3.42,47.81,47.81,0,0,0,1.06,7.63c1.65-2.45,1.61-5.62,1.51-8.58A7,7,0,0,0,333.33,207Z" style="fill:#7FCD91"></path><path d="M171.48,436.32a4.59,4.59,0,0,1-.32-1,14.66,14.66,0,0,1-.41-2.92,16.35,16.35,0,0,1,2.81-9.86l.35.31-6.15,5.56-.43.39v-.58a16.76,16.76,0,0,1,.18-2.51,15.79,15.79,0,0,1,4.15-8.47l.24.4a47.08,47.08,0,0,0-6.08,2.17l-.49.22.22-.48a25.07,25.07,0,0,1,3.61-5.65,17.17,17.17,0,0,1,1.24-1.34c.31-.3.48-.44.49-.42s-.58.66-1.56,1.9a26.72,26.72,0,0,0-3.41,5.67l-.27-.26a43.45,43.45,0,0,1,6.12-2.28l.85-.25-.61.65a15.46,15.46,0,0,0-4,8.21,15.86,15.86,0,0,0-.18,2.44l-.43-.19,6.19-5.53,1.49-1.33L174,422.82a16.52,16.52,0,0,0-2.92,9.59A24.69,24.69,0,0,0,171.48,436.32Z" style="fill:#263238"></path><path d="M244.89,384.38a.9.9,0,0,1,.07-.24c.07-.18.15-.4.25-.68.25-.63.59-1.49,1-2.58.81-2.27,2-5.54,3.14-9.7a158.67,158.67,0,0,0,5.4-33.12,127,127,0,0,0,0-15.39l-.1-1.3.56,1.18,3.62,7.6-.43.1a84.5,84.5,0,0,0-2.2-17c-.48-2-.92-3.59-1.23-4.67-.14-.5-.26-.91-.35-1.22a1.89,1.89,0,0,1-.1-.43,2.5,2.5,0,0,1,.17.41c.11.31.24.7.42,1.2.34,1.06.83,2.63,1.34,4.65a79.85,79.85,0,0,1,2.4,17.09l0,1.06-.46-1c-1.14-2.38-2.37-4.91-3.65-7.58l.47-.12a123.73,123.73,0,0,1,.08,15.45,151.39,151.39,0,0,1-5.57,33.19c-1.17,4.16-2.43,7.42-3.3,9.67-.46,1.08-.83,1.93-1.1,2.55l-.3.66A.85.85,0,0,1,244.89,384.38Z" style="fill:#263238"></path><path d="M211.64,309.23a2,2,0,0,1-.32-.35c-.19-.24-.48-.59-.83-1.08a36.23,36.23,0,0,1-2.67-4.29,40.14,40.14,0,0,1-4.65-16.41l.5.06a46.63,46.63,0,0,0-1.3,4.73,43.85,43.85,0,0,0-.87,5.74l-.09,1.1-.4-1a54,54,0,0,1-3.55-16.08,46.14,46.14,0,0,1-.07-4.85c0-.57.06-1,.08-1.3a1.33,1.33,0,0,1,.06-.45,17.09,17.09,0,0,1,0,1.75c0,1.13.05,2.78.22,4.83a57.07,57.07,0,0,0,3.69,15.92l-.49.07a45.12,45.12,0,0,1,.87-5.81,44.45,44.45,0,0,1,1.32-4.78l.43-1.25.07,1.32a41.48,41.48,0,0,0,4.44,16.28,44.82,44.82,0,0,0,2.52,4.35A16.29,16.29,0,0,1,211.64,309.23Z" style="fill:#263238"></path><path d="M219.23,311.26a8,8,0,0,1-2.08-1.37,21.44,21.44,0,0,1-6.81-9.78,8,8,0,0,1-.55-2.43,34.9,34.9,0,0,0,3.69,7.5A35.34,35.34,0,0,0,219.23,311.26Z" style="fill:#263238"></path><path d="M225.86,313.63c-.14.06-1.28-2.28-2.93-5s-3.18-4.86-3.06-5a20.2,20.2,0,0,1,3.5,4.68A20,20,0,0,1,225.86,313.63Z" style="fill:#263238"></path><path d="M324.29,175.89c-.07,0-.36-.34-1-.81a5.91,5.91,0,0,0-2.62-1.19,5.84,5.84,0,0,0-2.87.28c-.71.25-1.11.52-1.16.45s.3-.43,1-.79a5.12,5.12,0,0,1,5.87,1C324.15,175.38,324.34,175.85,324.29,175.89Z" style="fill:#263238"></path><g style="opacity:0.30000000000000004"><path d="M212.23,316.93l3.57,14.9a8.22,8.22,0,0,0,1-3.73,33.15,33.15,0,0,1,1.59,14.69l3.47-5.81a41.51,41.51,0,0,1,4,14.56,26.08,26.08,0,0,0-4.25-21.46q-1,3-1.94,6a35.51,35.51,0,0,0-2.49-14.3q-.84,2.51-1.69,5a41.78,41.78,0,0,0-3.59-11.1"></path></g><path d="M329.55,180.45c-.19,0-.46,0-.44.23a.34.34,0,0,0,.23.29l3.25,1.79C332.59,182.12,330.76,180.79,329.55,180.45Z" style="fill:#263238"></path><path d="M313.4,326.36s-1.23,4.18.8,6.72,6.62,5.43,6.62,5.43l9,10.49,2,4s-3.9-4.71-6.06-3-1.07,3.58,0,4.84,4.16,4.32,6,5,5.16.93,7-1.18c0,0,4.22,1.21,7.1-.7a8.29,8.29,0,0,0,3.49-3.94s4.08-.68,5.43-1.77,3.75-2.91,3.38-7.13S350,328.45,348,326s-4.47-6.26-4.47-6.26Z" style="fill:#ffbf9d"></path><path d="M348.92,331.71c-.33-3-2.62-7.87-3.77-9.66l-5.09-3.81L313,325.52a14.19,14.19,0,0,0,2,3.84,1.88,1.88,0,0,0,1.09.88,1.39,1.39,0,0,0,1.43-1,4,4,0,0,0,0-1.89,20.39,20.39,0,0,0,10.9,11.07,44,44,0,0,0-2.85-7.35,35.05,35.05,0,0,0,13,10.58,21.76,21.76,0,0,0-3.11-6.18,39.46,39.46,0,0,1,8.54,7,24.48,24.48,0,0,0-1.21-6.22,12.82,12.82,0,0,1,4.16,4.82,14.78,14.78,0,0,0-.56-6.37l2.38,3.16A16.27,16.27,0,0,0,348.92,331.71Z" style="fill:#7FCD91"></path><path d="M322.75,298l-3.51-4.49a6.76,6.76,0,0,0,4.51-1.82,15.61,15.61,0,0,1-7.61-2.65l3.65-.57a35.73,35.73,0,0,1-12.92-6.78l-11.81-12.32-12.23-11.65,2.93-23.6,3.91-23.46-43.6-15c-4.58,14.65,1.37,72.8,5,84.7s23.68,25.9,23.68,25.9l12.85,6.18a85.77,85.77,0,0,0,9.28,7.4,6.59,6.59,0,0,0-.6-3.22l.51.24L307,326a10.82,10.82,0,0,0-2.12-5.33l.25.12a21.59,21.59,0,0,1,5.8,11.62c1.33-2.2,2.36-3.48,2.5-6.06l32.48-3.46C338.28,311.89,327.12,301.85,322.75,298Z" style="fill:#7FCD91"></path><path d="M341.71,350.06a3.52,3.52,0,0,1,.44,1.65,8.2,8.2,0,0,1-.7,4.06,8.33,8.33,0,0,1-2.58,3.22,3.4,3.4,0,0,1-1.53.75c0-.08.53-.38,1.3-1a9.36,9.36,0,0,0,2.33-3.14,9.25,9.25,0,0,0,.81-3.83A12.78,12.78,0,0,1,341.71,350.06Z" style="fill:#263238"></path><path d="M348.6,344.13a4.1,4.1,0,0,1,1.18,1.5,9.07,9.07,0,0,1,1.05,4.49,9,9,0,0,1-1.26,4.43,4,4,0,0,1-1.25,1.45c-.07-.06.41-.61.93-1.62a10.09,10.09,0,0,0,.2-8.59C349,344.75,348.53,344.18,348.6,344.13Z" style="fill:#263238"></path><path d="M318.37,293c6.85,2.72,15,9.15,20,14.56L334,306a42.08,42.08,0,0,1,10.28,10.51,10.12,10.12,0,0,0-4.72-1.86,67.48,67.48,0,0,1,6.51,8.9" style="fill:#7FCD91"></path><path d="M346.07,323.58a4.13,4.13,0,0,1-.44-.64c-.27-.43-.69-1-1.24-1.82-1.1-1.56-2.81-3.72-5-6.31l-.32-.39.5.06a10.47,10.47,0,0,1,4.84,1.87l-.33.32a42.3,42.3,0,0,0-9.66-10l-.58-.42-1.47-1.07,1.71.61,4.34,1.56-.27.42a71.79,71.79,0,0,0-13.56-11.31,46.15,46.15,0,0,0-4.53-2.58c-1.1-.55-1.72-.81-1.7-.85a2.41,2.41,0,0,1,.47.15c.3.12.75.27,1.31.53a39.81,39.81,0,0,1,4.63,2.46,68.29,68.29,0,0,1,13.75,11.25l.73.78-1-.36-4.35-1.56.24-.46.59.43a41.65,41.65,0,0,1,9.73,10.16l.74,1.1-1.06-.78a10,10,0,0,0-4.62-1.85l.18-.33c2.14,2.63,3.81,4.84,4.87,6.44.52.8.91,1.44,1.15,1.89A4.73,4.73,0,0,1,346.07,323.58Z" style="fill:#263238"></path><g style="opacity:0.30000000000000004"><path d="M243.74,268.77a30.56,30.56,0,0,0,14.85,32.38c-.32-1.53-.63-3-.95-4.57,2.54,4.26,14,13.46,31.63,17.27l-16.89-10.47L246.51,264.2Z"></path></g><path d="M245.8,236.87C247,244.3,243.59,257,240,263.61a8.38,8.38,0,0,0,3.83-1.56,17.3,17.3,0,0,1-4.26,7.9,6.32,6.32,0,0,0,5.75-3.3A38.55,38.55,0,0,0,255.43,296l-2.35-6.66c5.06,6.6,15.38,13.16,22.59,17.3l9.71,4.87a29.36,29.36,0,0,1,4.95,3.14l6.59,5.15-.6-3.22L307,326" style="fill:#7FCD91"></path><path d="M307,326s-.07,0-.2-.14l-.54-.46-2.1-1.8-7.91-6.92.24-.14c.2,1,.4,2.09.62,3.22l.08.42-.34-.26-4-3.11c-1.42-1.07-2.86-2.29-4.48-3.36a47.81,47.81,0,0,0-5.38-2.92l-5.92-3-1.54-.77-1.52-.89c-1-.59-2-1.2-3.06-1.84-2.06-1.26-4.14-2.61-6.22-4.07a55.55,55.55,0,0,1-11.82-10.53l.45-.24c.75,2.12,1.54,4.38,2.35,6.66l.44,1.25-.88-1-.54-.61a38.83,38.83,0,0,1-9.65-28.93l.45.13a6.54,6.54,0,0,1-6,3.41l-.49,0,.34-.36A17.1,17.1,0,0,0,243.6,262l.33.22A8.61,8.61,0,0,1,240,263.8l-.39.05.19-.34a52.76,52.76,0,0,0,4.14-10.69,59.53,59.53,0,0,0,1.73-8.52,34.58,34.58,0,0,0,.26-5.51c0-.63-.09-1.1-.11-1.43a3.6,3.6,0,0,1,0-.49,13.87,13.87,0,0,1,.24,1.92,29.6,29.6,0,0,1-.16,5.53,56.31,56.31,0,0,1-1.64,8.59,52.2,52.2,0,0,1-4.09,10.79l-.2-.29a8.13,8.13,0,0,0,3.73-1.53l.46-.33-.13.55a17.61,17.61,0,0,1-4.3,8l-.16-.38a6.1,6.1,0,0,0,5.53-3.18l.55-1-.1,1.17a38.38,38.38,0,0,0,9.56,28.55l.53.6-.43.26c-.81-2.28-1.6-4.54-2.35-6.66l-.52-1.46,1,1.22A55.36,55.36,0,0,0,265,299.61c2.07,1.46,4.14,2.81,6.19,4.08,1,.63,2,1.24,3.05,1.84l1.5.88,1.54.78,5.9,3a47.53,47.53,0,0,1,5.39,3c1.66,1.1,3.08,2.33,4.49,3.42l4,3.13-.26.16c-.21-1.14-.4-2.22-.59-3.23l-.07-.42.32.29c3.35,3,6,5.38,7.81,7l2,1.86.52.49Z" style="fill:#263238"></path><path d="M243.31,219.15a6.15,6.15,0,0,1-.4-1.18,18.7,18.7,0,0,1-.6-3.4,21.41,21.41,0,0,1,2.24-11.44l.39.31a20.58,20.58,0,0,0-4.25,4.76l-.68,1.07.21-1.25A33.45,33.45,0,0,1,244.8,196a29.42,29.42,0,0,1,2.25-3.13,6.55,6.55,0,0,1,.95-1,8.84,8.84,0,0,1-.8,1.14,38.27,38.27,0,0,0-2.1,3.2,35,35,0,0,0-4.37,12l-.47-.19a21.69,21.69,0,0,1,1.39-1.93,20.18,20.18,0,0,1,3-3l.94-.76-.56,1.08a21.85,21.85,0,0,0-2.36,11.18A40.86,40.86,0,0,0,243.31,219.15Z" style="fill:#263238"></path><path d="M279.72,270.09a4.72,4.72,0,0,1-1-.69,24.84,24.84,0,0,1-2.4-2.24,30.15,30.15,0,0,1-6-9.23l.5-.06c-.12.72-.23,1.48-.31,2.25a42.45,42.45,0,0,0-.21,6.48l0,.88-.48-.73a16.54,16.54,0,0,1-2.68-7.61,15.15,15.15,0,0,1,0-2.32,2.58,2.58,0,0,1,.12-.82c.08,0-.05,1.16.2,3.11a17,17,0,0,0,2.78,7.37l-.44.15a39.63,39.63,0,0,1,.17-6.56c.09-.79.19-1.55.32-2.28l.15-.9.34.84a31.82,31.82,0,0,0,5.75,9.2C278.45,269,279.78,270,279.72,270.09Z" style="fill:#263238"></path><path d="M305.83,297.31a10,10,0,0,1-6.77-4.28c.12-.1,1.34,1.24,3.22,2.41S305.88,297.16,305.83,297.31Z" style="fill:#263238"></path><path d="M308.55,296.34a11.07,11.07,0,0,1-5-2.14,10.93,10.93,0,0,1-3.75-3.89,49.39,49.39,0,0,0,4,3.46A48.45,48.45,0,0,0,308.55,296.34Z" style="fill:#263238"></path><path d="M306.87,281.65s0,0-.12-.11l-.32-.33-1.24-1.35-4.7-5.09c-2-2.17-4.52-4.8-7.45-7.72-1.46-1.46-3-3-4.75-4.56a57.24,57.24,0,0,0-5.59-4.62l-.12-.08,0-.15c1.38-8.52,3-18.39,4.7-28.89v-1.12a40.44,40.44,0,0,1,2-12.13l.26-.82.23.83c.61,2.28,1.22,4.52,1.81,6.7l-.47,0a24,24,0,0,0,.61-16.49l-.3-.9.66.68a13.28,13.28,0,0,1,3.53,7.07h-.37a17.59,17.59,0,0,0-.41-8.3,18.46,18.46,0,0,0-5.46-8.67c-.35-.3-.63-.51-.81-.67s-.28-.23-.27-.24a3,3,0,0,1,.3.2c.19.14.49.34.85.63a16.89,16.89,0,0,1,2.79,2.94,18.37,18.37,0,0,1,2.89,5.72,17.67,17.67,0,0,1,.49,8.46l-.19,1.05-.18-1.05a13,13,0,0,0-3.47-6.83l.36-.22a24.43,24.43,0,0,1-.56,16.82l-.28.68-.19-.71q-.9-3.27-1.83-6.69h.49a40.37,40.37,0,0,0-1.92,12v1.2c-1.73,10.5-3.36,20.37-4.76,28.89l-.1-.23a58.6,58.6,0,0,1,5.62,4.69c1.7,1.59,3.27,3.13,4.73,4.61,2.91,2.94,5.37,5.6,7.38,7.8s3.55,4,4.61,5.17l1.18,1.4.3.36Z" style="fill:#263238"></path><g style="opacity:0.30000000000000004"><path d="M244.78,203.24a18.32,18.32,0,0,0-4.31,5.12A43.6,43.6,0,0,1,247,193c-6.46,4.3-12.27,13.55-11.67,21.28l2.81-2.6c1.31,7,4.72,14.43,5.34,22.2.72,9-1.51,18.38-2.34,26.59a47.87,47.87,0,0,0,4.65-21.12c0-6.22-1-11-2.05-17.17S241.16,210.13,244.78,203.24Z"></path></g><g style="opacity:0.30000000000000004"><path d="M282.83,257.68c-5.58-3.05-7.37-7-8.87-11.85a35.5,35.5,0,0,0,3.89,4.92,32.23,32.23,0,0,0,1.35-7.42,62.25,62.25,0,0,0,2.09,9.47c.94-2.17,2.66-4.45,3.35-6.7-.44,4.41-1.3,7.82-1.81,11.58"></path></g><path d="M316,321.16a12.59,12.59,0,0,1-4.55-7.07c.15,0,.85,1.71,2.11,3.65S316.1,321.05,316,321.16Z" style="fill:#263238"></path><path d="M330.09,326.49a3.74,3.74,0,0,1-1-.18,19.89,19.89,0,0,1-2.69-.93,21.61,21.61,0,0,1-7.57-5.51c-.28-.3-.52-.62-.78-.93l.45-.23c.43,1.45.84,2.84,1.22,4.11l.17.6-.52-.33a13.38,13.38,0,0,1-4-3.87,10.56,10.56,0,0,1-.8-1.38,1.58,1.58,0,0,1-.2-.54c.06,0,.41.68,1.23,1.75a14.32,14.32,0,0,0,4.06,3.64l-.35.27-1.25-4.1-.37-1.2.82,1c.25.3.49.62.76.91a23,23,0,0,0,7.34,5.51C328.67,326.06,330.12,326.4,330.09,326.49Z" style="fill:#263238"></path><path d="M336.33,326.9a11.84,11.84,0,0,1-2.52-2.33,11,11,0,0,1-2.12-2.68,11.94,11.94,0,0,1,2.51,2.33A11.55,11.55,0,0,1,336.33,326.9Z" style="fill:#263238"></path><path d="M339.23,326.7A17.52,17.52,0,0,1,336.8,324a17.22,17.22,0,0,1-2.25-2.85,16.52,16.52,0,0,1,4.68,5.56Z" style="fill:#263238"></path></g></svg>