<svg xmlns="http://www.w3.org/2000/svg" viewBox="0 0 500 500"><g id="freepik--character-1--inject-68"><path d="M184.7,324.06a110.48,110.48,0,0,0-2.13-11.67c.06-4.47.58-48.62-3.31-53.28l-15.77-20.25-13.75,14.75,14.85,17.5c.66,3.56,5.09,43.05,5.09,43.05h.06c-.21.44-.44.9-.71,1.41a7.64,7.64,0,0,1-1.57,2,11.38,11.38,0,0,1-2.55,1.89,1,1,0,0,0,0,1.87c.87.2,3.38-.78,5.51-3.11s1.83,2.63,1.76,4.43,0,7.41.5,7.87c.79.68,1.66,0,1.69-1.85s.51-7.21,1.46-7.12.44,9.27.44,9.27-.42,1.95.67,2.08c2,.24,1.79-9.57,1.75-10.5,0-.65,1-.59,1,.11s-.71,9.15,1.3,9.42c1.55.2-.08-8.07,1-9.74s.6,6.4,2.08,6.53C184.65,328.77,185.07,328.73,184.7,324.06Z" style="fill:#ffbe9d"></path><path d="M178.69,263.68s.18-.09.37-.38a2.61,2.61,0,0,0,.37-1.43,2.49,2.49,0,0,0-1.05-1.93,2.55,2.55,0,0,0-2.66-.24,2,2,0,0,0-1,1.08,1.8,1.8,0,0,0,.05,1.37,1.46,1.46,0,0,0,2,.66,1.2,1.2,0,0,0,.48-1.39c-.13-.35-.34-.44-.34-.42s.12.16.18.47a1,1,0,0,1-.48,1.08,1.13,1.13,0,0,1-1.52-.56,1.44,1.44,0,0,1,0-1.06,1.59,1.59,0,0,1,.79-.85,2.27,2.27,0,0,1,3.2,1.81A3.27,3.27,0,0,1,178.69,263.68Z" style="fill:#eb996e"></path><path d="M79.67,192.91c-1.07-3.47-10-42.19-10-42.19h-.07c.16-.46.33-.94.55-1.48a7.25,7.25,0,0,1,1.33-2.17,11.59,11.59,0,0,1,2.31-2.18,1,1,0,0,0-.2-1.85c-.88-.1-3.27,1.16-5.11,3.71s-2.13-2.4-2.26-4.2-.81-7.36-1.4-7.76c-.86-.58-1.64.23-1.47,2s.32,7.22-.63,7.25-1.5-9.16-1.5-9.16.2-2-.9-2c-2,0-.69,9.7-.54,10.63.1.64-.94.7-1,0s-.34-9.18-2.37-9.21c-1.56,0,1,8,.08,9.79s-1.32-6.29-2.81-6.25c-.55,0-1,.09-.06,4.7a106.83,106.83,0,0,0,3.45,11.34c.45,4.45,5,48.37,9.37,52.56l18,18.32,12-16.23Z" style="fill:#ffbe9d"></path><path d="M66.51,201.89s-.17.12-.33.43a2.51,2.51,0,0,0,1.06,3.25,2.55,2.55,0,0,0,2.67-.06,2,2,0,0,0,.86-1.18,1.82,1.82,0,0,0-.2-1.36,1.46,1.46,0,0,0-2.1-.43,1.21,1.21,0,0,0-.33,1.44c.17.33.39.4.39.38s-.14-.14-.23-.44a1,1,0,0,1,.35-1.13,1.14,1.14,0,0,1,1.58.38,1.46,1.46,0,0,1,.13,1.05,1.63,1.63,0,0,1-.69.93,2.18,2.18,0,0,1-2.24.07,2.21,2.21,0,0,1-1.15-1.5A3.23,3.23,0,0,1,66.51,201.89Z" style="fill:#eb996e"></path><path d="M150,398.57l-8.84-.7,1.2-16.59,13,.89v1c-.08,4.59-.73,23.35-1.87,26.34C152.12,412.89,150,398.57,150,398.57Z" style="fill:#888888"></path><g style="opacity:0.4"><path d="M154.72,388.18a5.78,5.78,0,0,1-3.38-2.38,5.57,5.57,0,0,1-.92-4l4.63.33Z"></path></g><path d="M151.27,405.58s1.06,5,1.92,4.49,2.23-19.49,2.1-27.9h-.37l-1.41,22.1S151.38,404.62,151.27,405.58Z" style="opacity:0.4"></path><path d="M154.93,381.91s0,.1,0,.29,0,.52,0,.82c0,.82-.06,1.83-.09,3-.09,2.56-.27,6.08-.54,10s-.61,7.4-.88,9.94c-.14,1.18-.25,2.19-.35,3,0,.3-.07.57-.1.81s-.05.28-.05.28a.86.86,0,0,1,0-.28c0-.25,0-.52.07-.82.07-.82.16-1.83.27-3,.24-2.55.55-6.06.82-9.95s.48-7.4.61-9.95c.06-1.19.11-2.2.15-3,0-.31,0-.58.05-.82A1.11,1.11,0,0,1,154.93,381.91Z" style="fill:#263238"></path><path d="M153.77,404.29a6.45,6.45,0,0,0-1.48.45,6.79,6.79,0,0,0-1.23.95,2.7,2.7,0,0,1,2.71-1.4Z" style="fill:#263238"></path><path d="M151.64,399.21c0,.05-.28.27-.67.48s-.75.35-.77.3.27-.26.67-.48S151.61,399.16,151.64,399.21Z" style="fill:#263238"></path><path d="M151,397.82s-.16.29-.44.56-.53.45-.57.41.16-.29.43-.56S151,397.78,151,397.82Z" style="fill:#263238"></path><path d="M149.52,396.86c.06,0,.08.39,0,.87a2.11,2.11,0,0,1-.15.86c-.06,0-.08-.39,0-.87A2.06,2.06,0,0,1,149.52,396.86Z" style="fill:#263238"></path><path d="M148.44,396.49a1.67,1.67,0,0,1,.21,1,1.76,1.76,0,0,1-.2,1,4.58,4.58,0,0,1,0-1A4.94,4.94,0,0,1,148.44,396.49Z" style="fill:#263238"></path><path d="M150.15,399.67a2.75,2.75,0,0,1-.08,1.07,6.35,6.35,0,0,1-.33,1.11,2.68,2.68,0,0,1-.32.63.57.57,0,0,1-.35.24.4.4,0,0,1-.41-.19,2,2,0,0,1,1.48-2.67.64.64,0,0,1,.29,0,3,3,0,0,0-.94.42,1.94,1.94,0,0,0-.66.87,1.67,1.67,0,0,0,0,1.28c.12.17.32.12.45-.06a4,4,0,0,0,.3-.58,8,8,0,0,0,.36-1.08C150.09,400.07,150.12,399.67,150.15,399.67Z" style="fill:#263238"></path><path d="M150.19,400a1.07,1.07,0,0,1-.75.07,1.67,1.67,0,0,1-.76-.35,1.07,1.07,0,0,1-.48-.92.43.43,0,0,1,.52-.3,1.23,1.23,0,0,1,.46.22,3.36,3.36,0,0,1,.61.55c.3.36.41.63.38.64s-.17-.23-.49-.54a4,4,0,0,0-.6-.5c-.22-.16-.62-.29-.68,0s.2.55.4.73a1.74,1.74,0,0,0,.67.35A4.85,4.85,0,0,0,150.19,400Z" style="fill:#263238"></path><path d="M150.36,381.92s-.08.47,0,1.23a5.37,5.37,0,0,0,.91,2.75,5.28,5.28,0,0,0,2.24,1.84,10.84,10.84,0,0,0,1.16.4s-.12,0-.34,0a4.23,4.23,0,0,1-.88-.25,5,5,0,0,1-3.23-4.72,4.13,4.13,0,0,1,.09-.91A1,1,0,0,1,150.36,381.92Z" style="fill:#263238"></path><path d="M143.34,383.14a29.62,29.62,0,0,1,3.42.11,28,28,0,0,1,3.4.3,30.88,30.88,0,0,1-3.42-.1A29.09,29.09,0,0,1,143.34,383.14Z" style="fill:#263238"></path><path d="M153,390.15a8.69,8.69,0,0,1,.07,2.43,9.46,9.46,0,0,1-.37,2.42c-.06,0,.09-1.09.17-2.43S152.9,390.15,153,390.15Z" style="fill:#263238"></path><path d="M153.18,386.9s.23.1.47.23.45.2.45.26-.27.07-.55-.08S153.14,386.93,153.18,386.9Z" style="fill:#263238"></path><path d="M151.75,385.56s.21.08.37.27.26.36.21.4-.2-.09-.37-.27S151.71,385.6,151.75,385.56Z" style="fill:#263238"></path><path d="M151.18,383.76s0,.23.1.48.19.44.15.48-.26-.12-.34-.43S151.13,383.74,151.18,383.76Z" style="fill:#263238"></path><path d="M150.94,382.49c.05,0,.13.08.17.22s0,.27,0,.29-.13-.09-.18-.23S150.89,382.5,150.94,382.49Z" style="fill:#263238"></path><path d="M216.76,344.93l-7.36,5L200,336.16l10.69-7.37.63.81c2.8,3.65,14,18.73,14.94,21.78C227.36,354.79,216.76,344.93,216.76,344.93Z" style="fill:#888888"></path><g style="opacity:0.4"><path d="M214,333.84a5.75,5.75,0,0,1-4.12.25,5.63,5.63,0,0,1-3.19-2.53l3.83-2.62Z"></path></g><path d="M222.14,349.61s4,3.28,4.3,2.31-10.4-16.64-15.73-23.13l-.29.23,12.66,18.17S221.63,348.79,222.14,349.61Z" style="opacity:0.4"></path><path d="M210.26,328.81a1.47,1.47,0,0,1,.19.22l.5.65,1.82,2.42c1.51,2,3.57,4.92,5.78,8.13s4.13,6.17,5.5,8.33l1.6,2.56.43.71a1.34,1.34,0,0,1,.13.25l-.17-.23c-.13-.21-.28-.43-.45-.69l-1.66-2.52c-1.4-2.14-3.35-5.08-5.55-8.29s-4.24-6.09-5.73-8.17l-1.76-2.45c-.18-.25-.33-.48-.48-.68Z" style="fill:#263238"></path><path d="M223.29,347a6.25,6.25,0,0,0-.87,1.28,6.41,6.41,0,0,0-.37,1.5,2.21,2.21,0,0,1,.18-1.59A2.23,2.23,0,0,1,223.29,347Z" style="fill:#263238"></path><path d="M218.46,344.39c.06,0-.05.38-.23.8s-.36.73-.41.71a1.72,1.72,0,0,1,.23-.79C218.23,344.69,218.41,344.37,218.46,344.39Z" style="fill:#263238"></path><path d="M217.12,343.68a1.38,1.38,0,0,1,0,.71c-.06.38-.14.68-.2.68a1.32,1.32,0,0,1,0-.71C217,344,217.06,343.68,217.12,343.68Z" style="fill:#263238"></path><path d="M215.34,343.87s.31.26.58.65a2.09,2.09,0,0,1,.42.77c-.05,0-.31-.26-.58-.65A2,2,0,0,1,215.34,343.87Z" style="fill:#263238"></path><path d="M214.26,344.25a1.72,1.72,0,0,1,.78.64,1.67,1.67,0,0,1,.46.9c-.06,0-.28-.35-.62-.77S214.23,344.3,214.26,344.25Z" style="fill:#263238"></path><path d="M217.59,345.68a3,3,0,0,1,.59.88,6.19,6.19,0,0,1,.44,1.08,3.5,3.5,0,0,1,.15.69.61.61,0,0,1-.13.41.41.41,0,0,1-.44.11,2,2,0,0,1-.9-2.33,2.13,2.13,0,0,1,.39-.69c.13-.14.22-.19.23-.18a2.75,2.75,0,0,0-.48.91,1.94,1.94,0,0,0,0,1.09,1.59,1.59,0,0,0,.79,1c.2.07.32-.1.31-.31a3.46,3.46,0,0,0-.13-.64,6.86,6.86,0,0,0-.38-1.07C217.79,346,217.56,345.7,217.59,345.68Z" style="fill:#263238"></path><path d="M217.79,345.88a1.14,1.14,0,0,1-.55.52,1.76,1.76,0,0,1-.81.2,1.08,1.08,0,0,1-1-.43.43.43,0,0,1,.22-.55,1.22,1.22,0,0,1,.5-.12,3.47,3.47,0,0,1,.82.05,1.51,1.51,0,0,1,.7.26s-.28-.06-.72-.12a4,4,0,0,0-.78,0c-.27,0-.66.15-.55.4a1,1,0,0,0,.77.32,1.69,1.69,0,0,0,.74-.14A5,5,0,0,0,217.79,345.88Z" style="fill:#263238"></path><path d="M206.7,331.66s.23.42.73,1a5.18,5.18,0,0,0,5.32,1.63c.73-.19,1.14-.44,1.16-.41s-.09.08-.28.19a4.16,4.16,0,0,1-.84.36,5,5,0,0,1-5.47-1.68,4.4,4.4,0,0,1-.5-.77A1,1,0,0,1,206.7,331.66Z" style="fill:#263238"></path><path d="M202,337a30.09,30.09,0,0,1,2.74-2.05,28.84,28.84,0,0,1,2.85-1.88,30.57,30.57,0,0,1-2.74,2.05A28.84,28.84,0,0,1,202,337Z" style="fill:#263238"></path><path d="M213.85,336.48a9.94,9.94,0,0,1,1.57,1.87,9.43,9.43,0,0,1,1.21,2.11s-.61-.9-1.38-2S213.8,336.52,213.85,336.48Z" style="fill:#263238"></path><path d="M212,333.79c0-.05.24-.05.51-.1s.48-.12.51-.08-.16.22-.47.28S212,333.85,212,333.79Z" style="fill:#263238"></path><path d="M210.05,333.64c0-.05.21-.06.45,0s.43.13.42.18-.21.07-.45,0S210,333.7,210.05,333.64Z" style="fill:#263238"></path><path d="M208.48,332.59c.05,0,.17.16.38.31s.42.23.41.29-.27.07-.53-.13S208.43,332.6,208.48,332.59Z" style="fill:#263238"></path><path d="M207.5,331.74s.16,0,.28.07.19.19.16.24-.15,0-.28-.07S207.47,331.79,207.5,331.74Z" style="fill:#263238"></path><path d="M136.23,193.16a1.56,1.56,0,0,0,2.09,2c1.05-.47,1.25-1.87,1.11-3s-.45-2.37.08-3.38a7.4,7.4,0,0,1,1.86-1.84,5,5,0,0,0,1.6-4.13,4.14,4.14,0,0,0-2.68-3.42c-1.48-.51-3.35-.14-4.41-1.29-.77-.84-.75-2.13-1.33-3.1-.89-1.52-2.94-1.86-4.69-1.72s-3.55.6-5.23.09c-1.41-.43-2.52-1.49-3.82-2.17a7.69,7.69,0,0,0-10.58,10,4.91,4.91,0,0,0,2.26,2.49" style="fill:#455a64"></path><path d="M134.48,223l-16.55-1.32c-.11-1.94,0-9.42,0-9.42s-6.89-1.07-7-8,1.11-22.7,1.11-22.7h0a23.93,23.93,0,0,1,24.05,3l1,.79Z" style="fill:#ffbe9d"></path><path d="M115.17,193.46a1,1,0,1,0-1.42-.07A1,1,0,0,0,115.17,193.46Z" style="fill:#263238"></path><path d="M112,191.86c.11.12.78-.4,1.73-.4s1.64.48,1.75.36-.06-.27-.36-.5a2.34,2.34,0,0,0-1.39-.43,2.2,2.2,0,0,0-1.38.47C112.06,191.59,112,191.81,112,191.86Z" style="fill:#263238"></path><path d="M123.94,192.69a1,1,0,1,0,1.38.33A1,1,0,0,0,123.94,192.69Z" style="fill:#263238"></path><path d="M122.32,192.7c.1.12.78-.4,1.73-.41s1.64.49,1.74.37-.06-.27-.36-.5a2.25,2.25,0,0,0-1.39-.44,2.35,2.35,0,0,0-1.38.47C122.37,192.43,122.26,192.65,122.32,192.7Z" style="fill:#263238"></path><path d="M118.51,200.53a4.26,4.26,0,0,0-1.53-.33c-.25,0-.45-.08-.46-.22a1.34,1.34,0,0,1,.17-.71c.25-.62.49-1.26.75-1.92a26.49,26.49,0,0,0,1.63-5.07,26.65,26.65,0,0,0-2.13,4.88c-.25.67-.48,1.31-.71,1.94a1.58,1.58,0,0,0-.14,1,.7.7,0,0,0,.43.4,1.33,1.33,0,0,0,.42.05A4.67,4.67,0,0,0,118.51,200.53Z" style="fill:#263238"></path><path d="M121.59,201.57a17.59,17.59,0,0,1-4.65,1.36,2.62,2.62,0,0,0,3.09,1C122.1,203.22,121.59,201.57,121.59,201.57Z" style="fill:#fff"></path><path d="M118,212.16a16,16,0,0,0,9-2.55s-2.12,5-9,4.34Z" style="fill:#eb996e"></path><path d="M112,183.33s4,2.33,9.67,0c3.71-1.52,7.93-2.08,8.8-1.29s.78,4.47,4.24,5.81c0,0-.76,7,2.05,7s1.87-11,1.87-11L132,179.94l-7.37-2-7.11.47L112,179.53Z" style="fill:#455a64"></path><path d="M136.32,192.54c.12,0,4.74-1.4,4.59,3.31s-4.85,3.59-4.86,3.45S136.32,192.54,136.32,192.54Z" style="fill:#ffbe9d"></path><path d="M137.55,197.57s.08.06.22.12a.81.81,0,0,0,.61,0,2.06,2.06,0,0,0,1-1.8,2.69,2.69,0,0,0-.2-1.18,1,1,0,0,0-.59-.65.42.42,0,0,0-.49.21c-.07.13,0,.23-.07.23s-.1-.08-.05-.27a.54.54,0,0,1,.19-.29.64.64,0,0,1,.46-.11,1.17,1.17,0,0,1,.83.76,2.71,2.71,0,0,1,.24,1.32,2.13,2.13,0,0,1-1.26,2,.87.87,0,0,1-.74-.15C137.55,197.68,137.53,197.57,137.55,197.57Z" style="fill:#eb996e"></path><path d="M139.52,178c0,.14-.74.07-1.52.33s-1.33.69-1.44.59.33-.8,1.28-1.09S139.57,177.82,139.52,178Z" style="fill:#263238"></path><path d="M136.84,175a3.18,3.18,0,0,1,.14,2.23c-.25,1.28-1,2-1.14,1.94s.41-.9.63-2S136.68,175,136.84,175Z" style="fill:#263238"></path><path d="M116.62,190.32c-.14.25-1,0-2.13,0s-2,.1-2.13-.17.81-.94,2.18-.87S116.78,190.08,116.62,190.32Z" style="fill:#263238"></path><path d="M127.19,189.43c-.14.26-1,0-2.13,0s-2,.1-2.13-.17.81-.93,2.18-.87S127.35,189.2,127.19,189.43Z" style="fill:#263238"></path><path d="M203.34,331.65,172,351.37l-20.2-36.17s.1-4-.1-6.27c-.1-1.25-3.71-7.37-3.71-7.37l-22.71,2L126.8,291H98.74c-.39.73-11.83,54.79-16.83,84.73a16.14,16.14,0,0,0,14.67,18.75L146.43,399l1.38-19.78-36.57-5.6,11.63-51,26.79,47.76a20.77,20.77,0,0,0,28.85,7.25l36.94-28Z" style="fill:#263238"></path><g style="opacity:0.6000000000000001"><path d="M123.38,321.2s-.24.1-.66-.05a2.34,2.34,0,0,1-1.26-1.3,6.88,6.88,0,0,1-.36-2.62c0-1,0-2.05,0-3.16,0-2.25,0-4.28,0-5.76a10.39,10.39,0,0,1,.17-2.38,11.31,11.31,0,0,1,.2,2.38c.06,1.47.1,3.51.12,5.75v3.17a7.51,7.51,0,0,0,.22,2.49,2.26,2.26,0,0,0,1,1.24C123.15,321.15,123.38,321.16,123.38,321.2Z" style="fill:#455a64"></path></g><g style="opacity:0.6000000000000001"><path d="M147.86,306.76a1.49,1.49,0,0,1-.26.59,5.62,5.62,0,0,1-1.12,1.35,6.73,6.73,0,0,1-10.25-1.34,5.77,5.77,0,0,1-.74-1.59c-.11-.4-.13-.63-.1-.64a18.36,18.36,0,0,0,1.14,2,6.64,6.64,0,0,0,9.71,1.27A19.53,19.53,0,0,0,147.86,306.76Z" style="fill:#455a64"></path></g><g style="opacity:0.6000000000000001"><path d="M102.16,308.27a3.05,3.05,0,0,1,0,1.82,5.65,5.65,0,0,1-6.72,4.52,3,3,0,0,1-1.67-.73c0-.08.66.24,1.73.37a5.7,5.7,0,0,0,6.3-4.24C102.14,309,102.07,308.27,102.16,308.27Z" style="fill:#455a64"></path></g><g style="opacity:0.6000000000000001"><path d="M147.59,382.46h-.25l-.74-.06-2.83-.27L133.4,381,118,379.28l-4.46-.5A21.67,21.67,0,0,1,109,377.7a7.53,7.53,0,0,1-2.18-1.16,3.18,3.18,0,0,1-1.11-2.32,8.81,8.81,0,0,1,.25-2.52l.54-2.45c3-13.11,5.61-25,7.55-33.62,1-4.26,1.78-7.73,2.35-10.17l.66-2.76c.08-.29.14-.53.19-.72a.75.75,0,0,1,.08-.24.77.77,0,0,1,0,.25l-.14.73-.57,2.78c-.52,2.46-1.26,5.93-2.18,10.21-1.9,8.65-4.51,20.53-7.4,33.65a21,21,0,0,0-.79,4.82,2.66,2.66,0,0,0,.93,2,6.94,6.94,0,0,0,2,1.08c2.94,1.11,6,1.2,8.91,1.58l15.38,1.84,10.36,1.28,2.82.37.73.11A.83.83,0,0,1,147.59,382.46Z" style="fill:#455a64"></path></g><g style="opacity:0.6000000000000001"><path d="M205.8,334.64s-.06.06-.19.16l-.59.42-2.31,1.6-8.55,5.8-12.71,8.54-3.69,2.46a21.44,21.44,0,0,1-4.09,2.23,7.28,7.28,0,0,1-4.84.41A6.77,6.77,0,0,1,165,353a44.4,44.4,0,0,1-2.17-4.45q-1-2.22-2-4.36c-1.29-2.86-2.54-5.62-3.72-8.25l-6.28-14c-1.75-4-3.18-7.17-4.18-9.44L145.6,310l-.28-.68c-.06-.15-.08-.23-.07-.23a1.06,1.06,0,0,1,.12.21l.33.66,1.2,2.53c1,2.26,2.52,5.45,4.34,9.37l6.37,13.93,3.75,8.24,2,4.35a47,47,0,0,0,2.14,4.4,6.28,6.28,0,0,0,3.5,3,6.88,6.88,0,0,0,4.51-.39,22,22,0,0,0,4-2.17l3.69-2.45L194,342.31l8.63-5.66,2.37-1.51.62-.39Z" style="fill:#455a64"></path></g><path d="M78.71,223l20.05,17.13s-4.28,55.48-5.09,66.24l56.75-2.51-2.83-27,2.11-22,6.44,9.49,17.15-17.93L154.12,228h0a30.18,30.18,0,0,0-11.67-7.56,24.29,24.29,0,0,0-7.31-1.4h0c-5.88,1.82-11.36-.3-17.24-2.11C116.62,217.07,94,203,94,203Z" style="fill:#888888"></path><path d="M150.28,255.86a14.69,14.69,0,0,1-2.3-3.11,15,15,0,0,1-1.85-3.39,14.69,14.69,0,0,1,2.3,3.11A14.51,14.51,0,0,1,150.28,255.86Z" style="fill:#263238"></path><path d="M106.85,307a.82.82,0,0,1,0-.23c0-.18,0-.4,0-.67.06-.63.13-1.49.22-2.58.22-2.29.53-5.51.91-9.48.81-8,2-19,3.54-31.21s3-23.18,4.21-31.13c.6-3.94,1.09-7.15,1.44-9.42q.27-1.6.42-2.55c0-.26.09-.48.13-.66a.79.79,0,0,1,.06-.23s0,.08,0,.24l-.07.67-.33,2.56c-.31,2.28-.74,5.49-1.28,9.44-1.08,8-2.54,19-4.06,31.14S109.28,286,108.37,294c-.45,4-.81,7.18-1.07,9.46-.13,1.08-.23,1.94-.31,2.57,0,.27-.07.49-.1.67A1.73,1.73,0,0,1,106.85,307Z" style="fill:#f5f5f5"></path><path d="M119,304c-.14,0,1.36-18.76,3.36-41.87s3.73-41.85,3.88-41.84-1.36,18.76-3.36,41.88S119.14,304,119,304Z" style="fill:#f5f5f5"></path><path d="M132.37,302.49c-.15,0,.27-18.71.92-41.76s1.3-41.76,1.45-41.76-.27,18.7-.93,41.77S132.51,302.49,132.37,302.49Z" style="fill:#f5f5f5"></path><path d="M146,304.72a5,5,0,0,1,0-.85q0-.92,0-2.46c0-2.19,0-5.26-.06-9-.08-7.63-.32-18.17-.92-29.79s-1.46-22.14-2.17-29.74c-.36-3.76-.66-6.82-.87-9-.09-1-.17-1.84-.23-2.45a5.53,5.53,0,0,1,0-.86,6.66,6.66,0,0,1,.15.85c.08.6.19,1.41.32,2.43.28,2.12.64,5.19,1,9,.8,7.59,1.71,18.1,2.32,29.74s.78,22.18.77,29.82c0,3.82,0,6.91-.1,9,0,1-.06,1.85-.08,2.46A4.67,4.67,0,0,1,146,304.72Z" style="fill:#f5f5f5"></path><path d="M164,255.66c-.12.07-4.24-7.35-9.19-16.58s-8.86-16.76-8.74-16.82,4.25,7.35,9.2,16.58S164.15,255.59,164,255.66Z" style="fill:#f5f5f5"></path><path d="M95.85,278.73a4.2,4.2,0,0,1,.05-.67l.24-1.89c.21-1.64.56-4,1-6.92.93-5.84,2.38-13.88,4.31-22.7s4-16.73,5.58-22.42c.8-2.85,1.47-5.15,2-6.73l.58-1.81a2.59,2.59,0,0,1,.23-.62,3.15,3.15,0,0,1-.13.65c-.13.47-.28,1.08-.48,1.84-.44,1.66-1.06,3.95-1.8,6.76-1.51,5.72-3.5,13.63-5.43,22.44s-3.44,16.83-4.46,22.65c-.49,2.86-.9,5.2-1.19,6.9-.14.77-.25,1.39-.34,1.87A3,3,0,0,1,95.85,278.73Z" style="fill:#f5f5f5"></path><path d="M89.2,233.51c-.12-.08,3.4-5.45,7.85-12s8.17-11.79,8.29-11.71-3.4,5.46-7.86,12S89.32,233.59,89.2,233.51Z" style="fill:#f5f5f5"></path><path d="M81.49,226.62a4.09,4.09,0,0,1,.47-.93c.33-.59.83-1.42,1.47-2.43,1.28-2,3.14-4.77,5.36-7.68s4.38-5.42,6-7.19c.8-.88,1.47-1.58,1.95-2a4.45,4.45,0,0,1,.78-.7,3.7,3.7,0,0,1-.63.83l-1.83,2.17c-1.54,1.82-3.64,4.36-5.86,7.26s-4.11,5.59-5.47,7.56l-1.6,2.34A3.74,3.74,0,0,1,81.49,226.62Z" style="fill:#f5f5f5"></path></g></svg>