<svg xmlns="http://www.w3.org/2000/svg" viewBox="0 0 500 500"><g id="freepik--origami-bird-5--inject-6"><polygon points="420.94 408.94 424.93 399.22 432.18 406.01 420.94 408.94" style="fill:#ae7461"></polygon><polygon points="397.75 409.35 435.8 405.08 424.61 430.6 397.75 409.35" style="fill:#ae7461"></polygon><polygon points="354.14 379.19 314.07 330.89 302.93 348.15 354.14 379.19" style="fill:#ae7461"></polygon><polygon points="281.68 345.83 290.69 328.46 458.77 439.28 451.67 449.39 281.68 345.83" style="fill:#ae7461"></polygon><path d="M290.69,328.46c.08-.12,37.78,24.59,84.18,55.19s84,55.51,83.91,55.63-37.77-24.59-84.19-55.2S290.61,328.58,290.69,328.46Z" style="fill:#263238"></path><polygon points="367.39 366.7 350.12 448.42 323.51 461.89 310.38 443.23 348.73 373.44 367.39 366.7" style="fill:#263238"></polygon><polygon points="367.39 366.7 350.12 448.42 323.51 461.89 310.38 443.23 348.73 373.44 367.39 366.7" style="opacity:0.30000000000000004"></polygon><polyline points="396.07 392.1 358.93 375.51 387.61 348.15" style="fill:#263238"></polyline><polyline points="396.07 392.1 358.93 375.51 387.61 348.15" style="opacity:0.30000000000000004"></polyline><polygon points="476.91 302.96 454.53 271.92 447.76 294.05 476.91 302.96" style="fill:#263238"></polygon><polygon points="394.69 278.43 447.76 294.05 454.53 271.92 394.69 278.43" style="fill:#7FCD91"></polygon><polygon points="402.63 306.42 440.64 288.45 394.69 278.43 402.63 306.42" style="fill:#7FCD91"></polygon><polygon points="407.47 323.69 394.69 278.43 373.26 289.14 407.47 323.69" style="fill:#e0e0e0"></polygon><polygon points="310.38 443.23 407.47 323.69 373.26 289.14 310.38 443.23" style="fill:#263238"></polygon><polygon points="360.62 320.14 403.93 323.69 358.93 324.28 360.62 320.14" style="opacity:0.30000000000000004"></polygon><polygon points="407.47 323.69 345.28 323.69 348.54 399.17 407.47 323.69" style="fill:#263238"></polygon><path d="M407.47,323.69l-.27.37-.85,1.09c-.76,1-1.86,2.42-3.29,4.26L390.74,345.3l-42,54-.43.55,0-.7c-.29-6.75-.6-13.78-.91-21-.84-19.81-1.64-38.46-2.32-54.52v-.24h.24l62.19.23-62.19.23.23-.24c.7,16.06,1.51,34.71,2.38,54.52.31,7.18.61,14.21.9,21l-.46-.14,42.08-53.67Z" style="fill:#455a64"></path><polygon points="434.91 406.01 438.26 377.84 471.19 368.71 434.91 406.01" style="fill:#455a64"></polygon><polygon points="467.01 401.34 471.19 368.71 434.91 406.01 467.01 401.34" style="fill:#455a64"></polygon><polygon points="467.01 401.34 471.19 368.71 434.91 406.01 467.01 401.34" style="opacity:0.30000000000000004"></polygon><polygon points="424.93 399.22 413.23 387.41 421.05 368.97 424.93 399.22" style="fill:#455a64"></polygon><polygon points="434.5 382.79 421.05 368.97 424.93 399.22 434.5 382.79" style="fill:#455a64"></polygon><polygon points="434.5 382.79 421.05 368.97 424.93 399.22 434.5 382.79" style="opacity:0.30000000000000004"></polygon><path d="M476.91,303c0,.14-18.48-5.24-41.18-12s-41.09-12.37-41.05-12.51,18.48,5.24,41.2,12S477,302.82,476.91,303Z" style="fill:#263238"></path><polygon points="429.97 293.49 396.06 278.84 435.8 290.69 429.97 293.49" style="opacity:0.30000000000000004"></polygon><polygon points="402.63 306.42 406.14 304.75 395.12 279.83 402.63 306.42" style="opacity:0.30000000000000004"></polygon><polygon points="348.54 399.17 341.82 366.19 346.61 354.46 348.54 399.17" style="opacity:0.30000000000000004"></polygon><polygon points="411.11 407.85 430.77 416.54 429.32 419.86 411.11 407.85" style="opacity:0.30000000000000004"></polygon><path d="M435.8,405.08c0,.15-5.5.88-12.32,1.64s-12.36,1.27-12.37,1.13,5.49-.88,12.31-1.64S435.78,404.94,435.8,405.08Z" style="fill:#263238"></path></g></svg>