<svg xmlns="http://www.w3.org/2000/svg" viewBox="0 0 500 500"><g id="freepik--origami-bird-3--inject-6"><polygon points="268.43 269.31 289.14 284.8 289.77 260.57 268.43 269.31" style="fill:#7FCD91"></polygon><polygon points="269.67 270.24 275.53 274.62 289.89 262.21 269.67 270.24" style="opacity:0.30000000000000004"></polygon><polygon points="289.33 277.45 297.23 284.22 289.14 284.8 289.33 277.45" style="fill:#7FCD91"></polygon><path d="M289.89,262.21a108.4,108.4,0,0,1-.08,11.3c-.2,6.24-.5,11.29-.67,11.29a108.4,108.4,0,0,1,.08-11.3A110.66,110.66,0,0,1,289.89,262.21Z" style="fill:#263238"></path><polygon points="202.6 295.36 171.34 256.93 255.67 265.8 202.6 295.36" style="fill:#7FCD91"></polygon><polygon points="305.19 198.58 280.12 143.2 181.91 186.53 305.19 198.58" style="fill:#7FCD91"></polygon><polygon points="305.19 198.58 280.12 143.2 181.91 186.53 305.19 198.58" style="fill:#7FCD91"></polygon><polygon points="305.19 198.58 280.12 143.2 181.91 186.53 305.19 198.58" style="opacity:0.30000000000000004"></polygon><polygon points="244.28 267.56 223.97 180.04 305.19 198.58 244.28 267.56" style="fill:#7FCD91"></polygon><polygon points="305.19 198.58 328.5 171.35 336.75 212.16 305.19 198.58" style="fill:#e0e0e0"></polygon><polygon points="348.53 185.74 336.75 212.16 328.5 171.35 348.53 185.74" style="fill:#ebebeb"></polygon><polygon points="355.34 175.3 348.53 185.74 328.5 171.35 355.34 175.3" style="fill:#e0e0e0"></polygon><polygon points="357.24 187.65 355.34 175.3 348.53 185.74 357.24 187.65" style="fill:#7FCD91"></polygon><polygon points="336.75 212.16 304.28 198.14 240.16 272.06 336.75 212.16 336.75 212.16" style="fill:#7FCD91"></polygon><polygon points="244.43 267.98 223.97 180.04 305.19 198.58 244.43 267.98" style="opacity:0.30000000000000004"></polygon><polygon points="326.16 248.44 336.75 212.16 202.6 295.36 326.16 248.44" style="fill:#7FCD91"></polygon><polygon points="305.19 198.58 260.81 143.92 159.81 173.43 305.19 198.58" style="fill:#7FCD91"></polygon><path d="M224.68,184.61c.15,0,4.71,18.6,10.16,41.61s9.75,41.72,9.59,41.76-4.71-18.59-10.17-41.62S224.52,184.65,224.68,184.61Z" style="fill:#263238"></path><path d="M298.51,206.14c.13.1-15.25,17.89-34.34,39.72s-34.66,39.44-34.79,39.33,15.25-17.89,34.35-39.72S298.39,206,298.51,206.14Z" style="fill:#263238"></path><path d="M305.19,198.58a1.79,1.79,0,0,1-.38,0l-1.11-.14-4.22-.62c-3.67-.55-9-1.39-15.52-2.48-13.09-2.16-31.15-5.35-51.07-8.94s-38-6.85-51-9.12l-15.48-2.66-4.21-.72-1.09-.21a1.81,1.81,0,0,1-.37-.09,1.81,1.81,0,0,1,.38,0l1.1.15,4.23.62c3.67.55,9,1.38,15.51,2.47,13.1,2.16,31.15,5.35,51.08,8.95s38,6.85,51,9.11l15.48,2.66,4.21.73,1.1.2A2.09,2.09,0,0,1,305.19,198.58Z" style="fill:#263238"></path><path d="M348.53,185.74a2.19,2.19,0,0,1-.41-.23l-1.12-.72L342.87,182l-14.11-9.74.45-.29c.51,2.62,1.06,5.43,1.63,8.33,1.67,8.75,3.18,16.68,4.3,22.51.51,2.82.93,5.14,1.23,6.83.13.76.23,1.38.31,1.87a3.15,3.15,0,0,1,.07.65,2.3,2.3,0,0,1-.19-.63c-.11-.49-.25-1.1-.41-1.84-.36-1.69-.84-4-1.42-6.8-1.16-5.83-2.73-13.74-4.47-22.48-.56-2.9-1.11-5.71-1.61-8.33l-.14-.7.58.41,14,9.91,4,2.93,1.07.8C348.42,185.62,348.54,185.72,348.53,185.74Z" style="fill:#263238"></path><polygon points="238.55 274.5 171.34 256.93 202.6 295.36 326.16 248.44 336.75 212.16 238.55 274.5" style="opacity:0.30000000000000004"></polygon><path d="M326.16,248.44c.06.15-21.56,8.51-48.28,18.65s-48.44,18.25-48.5,18.1,21.56-8.5,48.29-18.65S326.1,248.29,326.16,248.44Z" style="fill:#263238"></path><path d="M196.9,180s30.93,8.3,38.42,9.38c8.08,1.15,65.68,8.46,65.68,8.46Z" style="opacity:0.30000000000000004"></path><polygon points="239.75 264.13 242.12 270.62 244.43 267.98 243.58 264.53 239.75 264.13" style="opacity:0.4"></polygon><path d="M355.34,175.3a33.39,33.39,0,0,1-2.63,6.2,24.24,24.24,0,0,1-4,4Z" style="opacity:0.30000000000000004"></path></g></svg>