<?xml version="1.0" encoding="utf-8"?>
<svg xmlns="http://www.w3.org/2000/svg" viewBox="3.384 35.2049 493.233 415.5061" width="493.233px" height="415.506px">
    <path style="fill: rgb(127, 205, 145);" d="M 496.617 188.299 L 416.062 188.299 L 451.735 155.337 L 496.617 188.299 Z" transform="matrix(1, 0, 0, 1, 0, 1.4210854715202004e-14)"/>
    <path style="fill: rgb(127, 205, 145);" d="M 298.67 183.053 L 451.735 155.337 L 389.6 255.038 L 298.67 183.053 Z" transform="matrix(1, 0, 0, 1, 0, 1.4210854715202004e-14)"/>
    <path style="opacity: 0.3;" d="M 298.67 183.053 L 451.735 155.337 L 389.6 255.038 L 298.67 183.053 Z" transform="matrix(1, 0, 0, 1, 0, 1.4210854715202004e-14)"/>
    <path style="fill: rgb(127, 205, 145);" d="M 389.6 255.038 L 266.437 74.23 L 189.323 243.527 L 389.6 255.038 Z" transform="matrix(1, 0, 0, 1, 0, 1.4210854715202004e-14)"/>
    <path style="fill: rgb(127, 205, 145);" d="M 177.811 372.43 L 389.6 255.038 L 189.323 243.527 L 177.811 372.43 Z" transform="matrix(1, 0, 0, 1, 0, 1.4210854715202004e-14)"/>
    <path style="opacity: 0.3;" d="M 177.811 372.43 L 389.6 255.038 L 189.323 243.527 L 177.811 372.43 Z" transform="matrix(1, 0, 0, 1, 0, 1.4210854715202004e-14)"/>
    <path style="fill: rgb(127, 205, 145);" d="M 147.909 450.711 L 189.323 243.527 L 230.766 372.43 L 147.909 450.711 Z M 77.235 72.102 L 3.384 73.909 L 189.323 243.527 L 177.811 108.881 L 77.235 72.102 Z" transform="matrix(1, 0, 0, 1, 0, 1.4210854715202004e-14)"/>
    <path style="fill: rgb(127, 205, 145);" d="M 189.323 243.527 L 40.863 35.206 L 266.437 74.23 L 189.323 243.527 Z" transform="matrix(1, 0, 0, 1, 0, 1.4210854715202004e-14)"/>
    <path style="opacity: 0.3;" d="M 189.323 243.527 L 40.863 35.206 L 266.437 74.23 L 189.323 243.527 Z" transform="matrix(1, 0, 0, 1, 0, 1.4210854715202004e-14)"/>
    <path d="M 266.437 74.23 C 266.688 74.501 266.913 74.792 267.108 75.103 L 268.973 77.697 L 275.997 87.781 L 302.022 125.669 L 390.241 254.689 L 391.144 256.001 L 389.542 256.001 L 331.05 252.649 L 189.294 244.4 L 189.993 243.498 C 202.321 282.201 212.551 314.434 219.778 337.079 L 227.997 363.308 L 230.095 370.245 C 230.328 370.973 230.503 371.556 230.62 372.022 C 230.736 372.489 230.795 372.634 230.62 372.634 C 230.518 372.453 230.439 372.258 230.386 372.052 C 230.212 371.614 230.007 371.031 229.745 370.302 C 229.221 368.7 228.434 366.397 227.443 363.454 C 225.432 357.363 222.547 348.532 218.699 337.224 C 211.385 314.638 200.922 282.463 188.39 243.818 L 188.069 242.856 L 189.09 242.856 L 330.846 250.9 L 389.628 254.369 L 388.93 255.592 L 301.177 126.135 L 275.559 88.248 L 268.74 77.989 L 266.992 75.308 C 266.761 74.975 266.575 74.614 266.437 74.23 Z" style="fill: rgb(38, 50, 56);" transform="matrix(1, 0, 0, 1, 0, 1.4210854715202004e-14)"/>
    <path style="opacity: 0.4;" d="M 431.188 188.299 L 439.523 188.299 L 451.735 155.337 L 431.188 188.299 Z" transform="matrix(1, 0, 0, 1, 0, 1.4210854715202004e-14)"/>
    <path d="M 451.735 155.279 C 452.113 155.512 438.503 178.04 421.338 205.552 C 404.172 233.064 389.978 255.097 389.6 255.097 C 389.221 255.097 402.802 232.365 419.967 204.824 C 437.134 177.283 451.356 155.104 451.735 155.279 Z" style="fill: rgb(38, 50, 56);" transform="matrix(1, 0, 0, 1, 0, 1.4210854715202004e-14)"/>
    <path style="opacity: 0.4;" d="M 56.63 72.626 L 189.323 243.527 L 67.151 72.102 L 56.63 72.626 Z" transform="matrix(1, 0, 0, 1, 0, 1.4210854715202004e-14)"/>
    <path d="M 189.323 243.527 C 188.973 243.789 155.428 197.362 114.452 139.832 C 73.475 82.302 40.513 35.468 40.863 35.206 C 41.213 34.943 74.758 81.37 115.763 138.9 C 156.769 196.43 189.701 243.264 189.323 243.527 Z" style="fill: rgb(38, 50, 56);" transform="matrix(1, 0, 0, 1, 0, 1.4210854715202004e-14)"/>
</svg>