<svg xmlns="http://www.w3.org/2000/svg" viewBox="0 0 500 500"><g id="freepik--origami-bird-4--inject-6"><polygon points="358.21 115.37 356.73 86.57 374.94 89.27 445.18 148.83 403.86 152 358.21 115.37" style="fill:#455a64"></polygon><polygon points="395.42 81.78 399.2 113.21 368.04 114.85 395.42 81.78" style="fill:#455a64"></polygon><path d="M440.09,75.88c-.89,0-44.67,5.9-44.67,5.9L402.29,139Z" style="fill:#455a64"></path><polygon points="358.21 115.37 399.2 113.21 403.86 152 358.21 115.37" style="fill:#ebebeb"></polygon><polygon points="356.73 86.57 350.31 102.19 357.34 98.36 356.73 86.57" style="fill:#7FCD91"></polygon><path d="M440.09,75.88c-.89,0-44.67,5.9-44.67,5.9L402.29,139Z" style="opacity:0.30000000000000004"></path><path d="M368,114.85s0-.07.12-.18.23-.3.39-.5l1.52-1.91,5.71-7,19.44-23.63.38-.46.08.6c.31,2.57.63,5.26,1,8,1,8.5,2,16.51,2.78,23.43l0,.09-.05.07c-4.67,6.68-8.58,12.29-11.35,16.27l-3.23,4.56-.87,1.19a2.5,2.5,0,0,1-.32.4,2.55,2.55,0,0,1,.26-.44l.81-1.23,3.12-4.64L399,113.08l0,.16c-.84-6.92-1.82-14.93-2.85-23.43-.33-2.74-.65-5.43-1-8l.46.13L376,105.46l-5.83,6.92-1.59,1.85-.42.47C368.1,114.81,368.05,114.86,368,114.85Z" style="fill:#263238"></path><path d="M403.85,152a1.32,1.32,0,0,1,0-.18l-.08-.54c-.07-.51-.17-1.2-.29-2.1-.24-1.87-.58-4.54-1-7.93-.84-6.84-2-16.53-3.46-28l.25.21L369,115.1l-10.8.59.15-.46,32.48,26.13,9.57,7.77,2.57,2.11.65.56c.15.12.22.19.21.2l-.24-.17-.68-.52c-.63-.48-1.5-1.16-2.62-2l-9.67-7.65-32.59-26-.53-.42.68,0,10.8-.59,30.18-1.6h.22l0,.21,3.27,28,.89,7.95c.09.89.16,1.59.22,2.1,0,.22,0,.4,0,.54S403.86,152,403.85,152Z" style="fill:#263238"></path><polygon points="403.86 152 402.29 139 412.83 121.4 414.49 122.81 404.9 139 403.86 152" style="opacity:0.4"></polygon><path d="M359.92,115.43s24.28-5.59,36.18-2.22l-36.77,2.22" style="opacity:0.4"></path><polygon points="381.31 94.68 370.08 112.39 383.33 96.39 381.31 94.68" style="opacity:0.4"></polygon></g></svg>