<svg xmlns="http://www.w3.org/2000/svg" viewBox="0 0 500 500"><g id="freepik--origami-bird-1--inject-6"><polygon points="198.92 103.33 171.28 103.33 183.52 92.02 198.92 103.33" style="fill:#7FCD91"></polygon><polygon points="131 101.53 183.52 92.02 162.2 126.23 131 101.53" style="fill:#7FCD91"></polygon><polygon points="131 101.53 183.52 92.02 162.2 126.23 131 101.53" style="opacity:0.30000000000000004"></polygon><polygon points="162.2 126.23 119.94 64.19 93.48 122.28 162.2 126.23" style="fill:#7FCD91"></polygon><polygon points="89.53 166.51 162.2 126.23 93.48 122.28 89.53 166.51" style="fill:#7FCD91"></polygon><polygon points="89.53 166.51 162.2 126.23 93.48 122.28 89.53 166.51" style="opacity:0.30000000000000004"></polygon><polygon points="79.27 193.37 93.48 122.28 107.7 166.51 79.27 193.37" style="fill:#7FCD91"></polygon><polygon points="55.02 63.46 29.68 64.08 93.48 122.28 89.53 76.08 55.02 63.46" style="fill:#7FCD91"></polygon><polygon points="93.48 122.28 42.54 50.8 119.94 64.19 93.48 122.28" style="fill:#7FCD91"></polygon><polygon points="93.48 122.28 42.54 50.8 119.94 64.19 93.48 122.28" style="opacity:0.30000000000000004"></polygon><path d="M119.94,64.19a2,2,0,0,1,.23.3l.64.89,2.41,3.46,8.93,13,30.27,44.27.31.45-.55,0-20.07-1.15-48.64-2.83.24-.31c4.23,13.28,7.74,24.34,10.22,32.11l2.82,9,.72,2.38c.08.25.14.45.18.61s.06.21,0,.21a.78.78,0,0,1-.08-.2c-.06-.15-.13-.35-.22-.6-.18-.55-.45-1.34-.79-2.35-.69-2.09-1.68-5.12-3-9-2.51-7.75-6.1-18.79-10.4-32.05l-.11-.33.35,0,48.64,2.76L162.21,126l-.24.42L131.86,82,123.07,69l-2.34-3.52-.6-.92A1.54,1.54,0,0,1,119.94,64.19Z" style="fill:#263238"></path><polygon points="176.47 103.33 179.33 103.33 183.52 92.02 176.47 103.33" style="opacity:0.4"></polygon><path d="M183.52,92c.13.08-4.54,7.81-10.43,17.25s-10.76,17-10.89,17,4.53-7.8,10.42-17.25S183.39,91.94,183.52,92Z" style="fill:#263238"></path><polygon points="47.95 63.64 93.48 122.28 51.56 63.46 47.95 63.64" style="opacity:0.4"></polygon><path d="M93.48,122.28c-.12.09-11.63-15.84-25.69-35.58S42.42,50.89,42.54,50.8s11.63,15.84,25.7,35.58S93.61,122.19,93.48,122.28Z" style="fill:#263238"></path></g></svg>