<svg xmlns="http://www.w3.org/2000/svg" viewBox="0 0 500 500"><g id="freepik--origami-bird-2--inject-6"><polygon points="220.17 325.9 107.33 403.39 180.8 444.4 220.17 325.9" style="fill:#e0e0e0"></polygon><polygon points="210.93 370.72 272.24 370.72 225.43 429.45 206.66 409.3 210.93 370.72" style="fill:#e0e0e0"></polygon><polygon points="43.56 318.84 27.76 325.9 56.03 323.46 56.03 314.43 43.56 318.84" style="fill:#7FCD91"></polygon><polygon points="225.43 429.45 220.17 325.9 174.18 406.82 225.43 429.45" style="fill:#e0e0e0"></polygon><polygon points="114.53 343.27 107.33 387.75 93.46 405.82 72.67 374.2 114.53 343.27" style="fill:#e0e0e0"></polygon><polygon points="85.15 300.18 114.53 343.27 97.34 370.72 66.29 296.36 85.15 300.18" style="fill:#e0e0e0"></polygon><polygon points="66.29 296.36 85.15 300.18 72.67 312 43.56 321.73 43.56 312.69 66.29 296.36" style="fill:#e0e0e0"></polygon><polygon points="43.56 321.73 56.03 323.46 56.03 317.56 43.56 321.73" style="opacity:0.30000000000000004"></polygon><polygon points="72.67 312 66.29 296.36 69.48 313.06 72.67 312" style="opacity:0.30000000000000004"></polygon><polygon points="92.64 359.45 114.53 343.27 90.41 354.13 92.64 359.45" style="opacity:0.30000000000000004"></polygon><polygon points="72.67 374.2 102.62 393.64 107.33 387.75 72.67 374.2" style="opacity:0.30000000000000004"></polygon><polygon points="72.67 374.2 102.62 393.64 180.8 444.4 74.89 444.4 72.67 374.2" style="fill:#e0e0e0"></polygon><path d="M72.67,374.2c.06,1.83,1,28.08,2.44,70.19l-.22-.21,82.29,0H180.8l-.14.47-77-50.1-31-20.31,31.16,20,77.11,50,.73.47H157.18l-82.29-.05h-.21v-.21C73.47,402.29,72.72,376,72.67,374.2Z" style="fill:#263238"></path><path d="M225.43,429.45s0-.17-.05-.5-.06-.84-.1-1.47c-.08-1.32-.2-3.23-.35-5.67-.28-4.95-.69-12.07-1.19-20.87-1-17.63-2.26-42-3.71-68.83-.1-1.81-.2-3.61-.28-5.29l.48.11-32.57,56.71-9.83,17-2.69,4.6-.71,1.18c-.16.27-.25.4-.25.4a4.15,4.15,0,0,1,.21-.42l.66-1.21,2.61-4.64c2.29-4.05,5.59-9.87,9.69-17.09l32.43-56.78.44-.77.05.88c.08,1.68.18,3.48.28,5.29,1.39,26.87,2.65,51.21,3.56,68.85.43,8.79.78,15.92,1,20.87.11,2.44.19,4.35.25,5.67,0,.63,0,1.12.05,1.48S225.43,429.45,225.43,429.45Z" style="fill:#263238"></path><path d="M180.8,444.4c0-1-6.62-37.58-6.62-37.58l51.25,22.63Z" style="fill:#e0e0e0"></path><path d="M180.8,444.4l.22-.09.65-.23,2.48-.86,9.25-3.17,32-10.83,0,.46-21.56-9.5L174.09,407l.32-.25c2,11.19,3.65,20.59,4.77,27.19.54,3.28,1,5.88,1.27,7.68.12.87.22,1.55.29,2,0,.23,0,.39,0,.52s0,.18,0,.19c-.36-1.95-2.83-15.5-6.85-37.54l-.08-.43.4.18L204,419.7l21.54,9.53.59.26-.61.2-32.22,10.65-9.23,3-2.44.79-.62.19Z" style="fill:#263238"></path><polygon points="119.34 395.14 178.62 442.98 112.34 399.95 119.34 395.14" style="opacity:0.30000000000000004"></polygon><polygon points="227.83 370.72 224.81 417.73 222.33 370.72 227.83 370.72" style="opacity:0.30000000000000004"></polygon><polygon points="180.8 444.4 167.99 405.82 220.01 326.8 174.18 406.82 180.8 444.4" style="opacity:0.30000000000000004"></polygon><polygon points="225.43 429.45 227.56 426.79 176.25 407.73 225.43 429.45" style="opacity:0.30000000000000004"></polygon><path d="M114.34,343.09c.09.11-9.16,7.15-20.64,15.71s-20.88,15.41-21,15.29,9.16-7.15,20.65-15.71S114.26,343,114.34,343.09Z" style="fill:#263238"></path><path d="M56,323.46a37.33,37.33,0,0,1-6.28-.61,39.22,39.22,0,0,1-6.2-1.12,37.18,37.18,0,0,1,6.27.61A39.5,39.5,0,0,1,56,323.46Z" style="fill:#263238"></path></g></svg>