<?xml version="1.0" encoding="UTF-8"?>
<!DOCTYPE svg PUBLIC "-//W3C//DTD SVG 1.1//EN" "http://www.w3.org/Graphics/SVG/1.1/DTD/svg11.dtd">
<!-- Creator: CorelDRAW (Versão OEM) -->
<svg xmlns="http://www.w3.org/2000/svg" xml:space="preserve" width="103.023mm" height="103.171mm" version="1.1" style="shape-rendering:geometricPrecision; text-rendering:geometricPrecision; image-rendering:optimizeQuality; fill-rule:evenodd; clip-rule:evenodd"
viewBox="0 0 910.98 912.29"
 xmlns:xlink="http://www.w3.org/1999/xlink"
 xmlns:xodm="http://www.corel.com/coreldraw/odm/2003">
 <defs>
  <style type="text/css">
   <![CDATA[
    .str0 {stroke:#373435;stroke-width:1.77;stroke-miterlimit:22.9256}
    .fil0 {fill:#1F2937}
    .fil1 {fill:#9C71FA}
    .fil2 {fill:white}
   ]]>
  </style>
 </defs>
 <g id="Camada_x0020_1">
  <metadata id="CorelCorpID_0Corel-Layer"/>
  <path class="fil0 str0" d="M258 0.88l323.67 0c89.55,0 168.78,46.41 214.86,116.35 68.39,46.33 113.56,124.65 113.56,213.01l0 324.04c0,141.42 -115.7,257.12 -257.12,257.12l-323.67 0c-89.55,0 -168.78,-46.41 -214.86,-116.35 -68.39,-46.33 -113.56,-124.65 -113.56,-213.01l0 -324.04c0,-141.42 115.7,-257.12 257.12,-257.12z"/>
  <path class="fil1" d="M258.95 47.07l321.77 0c116.54,0 211.88,95.35 211.88,211.88l0 322.14c0,116.54 -95.35,211.89 -211.88,211.89l-321.77 0c-116.54,0 -211.88,-95.35 -211.88,-211.89l0 -322.14c0,-116.54 95.35,-211.88 211.88,-211.88z"/>
  <path class="fil2" d="M419.84 209.22c116.42,0 210.81,94.38 210.81,210.81 0,116.43 -94.38,210.81 -210.81,210.81 -116.43,0 -210.81,-94.38 -210.81,-210.81 0,-116.42 94.38,-210.81 210.81,-210.81z"/>
  <path class="fil0" d="M464.59 291.8c47.79,0 86.54,38.74 86.54,86.54 0,47.79 -38.74,86.54 -86.54,86.54 -47.79,0 -86.54,-38.74 -86.54,-86.54 0,-47.79 38.74,-86.54 86.54,-86.54z"/>
 </g>
</svg>
